<?xml version="1.0" encoding="UTF-8" standalone="no"?>
<!-- Created with Inkscape (http://www.inkscape.org/) -->

<svg
   xmlns:osb="http://www.openswatchbook.org/uri/2009/osb"
   xmlns:dc="http://purl.org/dc/elements/1.1/"
   xmlns:cc="http://creativecommons.org/ns#"
   xmlns:rdf="http://www.w3.org/1999/02/22-rdf-syntax-ns#"
   xmlns:svg="http://www.w3.org/2000/svg"
   xmlns="http://www.w3.org/2000/svg"
   xmlns:xlink="http://www.w3.org/1999/xlink"
   xmlns:sodipodi="http://sodipodi.sourceforge.net/DTD/sodipodi-0.dtd"
   xmlns:inkscape="http://www.inkscape.org/namespaces/inkscape"
   width="297mm"
   height="210mm"
   viewBox="0 0 297 210"
   version="1.1"
   id="svg8"
   inkscape:version="0.92.3 (2405546, 2018-03-11)"
   sodipodi:docname="das_bus.svg">
  <defs
     id="defs2">
    <linearGradient
       id="linearGradient6879"
       osb:paint="solid">
      <stop
         style="stop-color:#000000;stop-opacity:1;"
         offset="0"
         id="stop6877" />
    </linearGradient>
  </defs>
  <sodipodi:namedview
     id="base"
     pagecolor="#ffffff"
     bordercolor="#666666"
     borderopacity="1.0"
     inkscape:pageopacity="0.0"
     inkscape:pageshadow="2"
     inkscape:zoom="0.99062851"
     inkscape:cx="376.77218"
     inkscape:cy="396.33141"
     inkscape:document-units="mm"
     inkscape:current-layer="g7369"
     showgrid="false"
     inkscape:window-width="1580"
     inkscape:window-height="981"
     inkscape:window-x="213"
     inkscape:window-y="63"
     inkscape:window-maximized="0" />
  <metadata
     id="metadata5">
    <rdf:RDF>
      <cc:Work
         rdf:about="">
        <dc:format>image/svg+xml</dc:format>
        <dc:type
           rdf:resource="http://purl.org/dc/dcmitype/StillImage" />
        <dc:title></dc:title>
      </cc:Work>
    </rdf:RDF>
  </metadata>
  <g
     inkscape:label="Layer 1"
     inkscape:groupmode="layer"
     id="layer1"
     transform="translate(0,-87)">
    <rect
       style="fill:none;fill-opacity:1;stroke-width:0.26458332"
       id="rect4556"
       width="205.92355"
       height="20.031475"
       x="16.826439"
       y="112.44335" />
    <flowRoot
       xml:space="preserve"
       style="font-style:normal;font-weight:normal;font-size:40px;line-height:1.25;font-family:sans-serif;letter-spacing:0px;word-spacing:0px;fill:#000000;fill-opacity:1;stroke:none"
       id="flowRoot5403"><flowRegion
         id="flowRegion5405"><use
           x="0"
           y="0"
           xlink:href="#rect4556"
           id="use5407" /></flowRegion><flowPara
         id="flowPara5409">DAS Bus</flowPara></flowRoot>    <rect
       style="fill:none;fill-opacity:1;stroke-width:0.26458332"
       id="rect6891"
       width="135.14568"
       height="22.435249"
       x="16.826439"
       y="112.44335" />
    <flowRoot
       xml:space="preserve"
       style="font-style:normal;font-weight:normal;font-size:40px;line-height:1.25;font-family:sans-serif;letter-spacing:0px;word-spacing:0px;fill:#000000;fill-opacity:1;stroke:none"
       id="flowRoot6911"><flowRegion
         id="flowRegion6913" /><flowPara
         id="flowPara6917">DAS Bus</flowPara></flowRoot>    <g
       style="fill:none;stroke:none;stroke-linecap:square;stroke-miterlimit:10"
       clip-path="url(#g3fe1bd5dca_0_0.0)"
       id="g7369"
       transform="matrix(0.26458333,0,0,0.26458333,8.7442957,112.42013)">
      <path
         style="fill:#eeeeee;fill-rule:evenodd"
         inkscape:connector-curvature="0"
         d="M 75.220474,77.5958 H 870.96852 v 41.17323 H 75.220474 Z"
         id="path7173" />
      <path
         style="fill:#000000;fill-opacity:0;fill-rule:evenodd"
         inkscape:connector-curvature="0"
         d="m 174.68898,77.5958 v 41.17323 M 771.50002,77.5958 v 41.17323"
         id="path7175" />
      <path
         style="fill:#000000;fill-opacity:0;fill-rule:evenodd"
         inkscape:connector-curvature="0"
         d="M 75.220474,77.5958 H 870.96852 v 41.17323 H 75.220474 Z"
         id="path7177" />
      <path
         style="fill-rule:evenodd;stroke:#595959;stroke-width:1;stroke-linecap:butt;stroke-linejoin:round"
         inkscape:connector-curvature="0"
         d="m 174.68898,77.5958 v 41.17323 M 771.50002,77.5958 v 41.17323"
         id="path7179" />
      <path
         style="fill-rule:evenodd;stroke:#595959;stroke-width:1;stroke-linecap:butt;stroke-linejoin:round"
         inkscape:connector-curvature="0"
         d="M 75.220474,77.5958 H 870.96852 v 41.17323 H 75.220474 Z"
         id="path7181" />
      <path
         style="fill:#000000;fill-rule:nonzero"
         inkscape:connector-curvature="0"
         d="M 185.12648,105.10242 V 91.743045 h 4.60937 q 1.54688,0 2.375,0.203125 1.14063,0.25 1.95313,0.953125 1.0625,0.890625 1.57812,2.28125 0.53125,1.390625 0.53125,3.171875 0,1.515625 -0.35937,2.70312 -0.35938,1.17188 -0.92188,1.9375 -0.54687,0.76563 -1.20312,1.21875 -0.65625,0.4375 -1.59375,0.67188 -0.9375,0.21875 -2.14063,0.21875 z m 1.76562,-1.57813 h 2.85938 q 1.3125,0 2.0625,-0.23437 0.75,-0.25 1.20312,-0.70313 0.625,-0.625 0.96875,-1.6875 0.35938,-1.062495 0.35938,-2.57812 0,-2.09375 -0.6875,-3.21875 -0.6875,-1.125 -1.67188,-1.5 -0.70312,-0.28125 -2.28125,-0.28125 h -2.8125 z m 10.23858,1.57813 5.125,-13.359375 h 1.90625 l 5.46875,13.359375 h -2.01563 l -1.54687,-4.04688 h -5.59375 l -1.46875,4.04688 z m 3.85937,-5.484375 h 4.53125 l -1.40625,-3.703125 q -0.625,-1.6875 -0.9375,-2.765625 -0.26562,1.28125 -0.71875,2.546875 z m 9.4592,1.187495 1.65625,-0.14062 q 0.125,1 0.54687,1.64062 0.4375,0.64063 1.34375,1.04688 0.92188,0.39062 2.0625,0.39062 1,0 1.78125,-0.29687 0.78125,-0.29688 1.15625,-0.8125 0.375,-0.53125 0.375,-1.15625 0,-0.625 -0.375,-1.09375 -0.35937,-0.46875 -1.1875,-0.796875 -0.54687,-0.203125 -2.39062,-0.640625 -1.82813,-0.453125 -2.5625,-0.84375 -0.96875,-0.5 -1.4375,-1.234375 -0.46875,-0.75 -0.46875,-1.671875 0,-1 0.57812,-1.875 0.57813,-0.890625 1.67188,-1.34375 1.10937,-0.453125 2.45312,-0.453125 1.48438,0 2.60938,0.484375 1.14062,0.46875 1.75,1.40625 0.60937,0.921875 0.65625,2.09375 l -1.6875,0.125 q -0.14063,-1.265625 -0.9375,-1.90625 -0.78125,-0.65625 -2.3125,-0.65625 -1.60938,0 -2.34375,0.59375 -0.73438,0.59375 -0.73438,1.421875 0,0.71875 0.53125,1.171875 0.5,0.46875 2.65625,0.96875 2.15625,0.484375 2.95313,0.84375 1.17187,0.53125 1.71875,1.359375 0.5625,0.828125 0.5625,1.906245 0,1.0625 -0.60938,2.01563 -0.60937,0.9375 -1.75,1.46875 -1.14062,0.51562 -2.57812,0.51562 -1.8125,0 -3.04688,-0.53125 -1.21875,-0.53125 -1.92187,-1.59375 -0.6875,-1.0625 -0.71875,-2.40625 z m 18.1425,4.29688 V 91.743045 h 5.01563 q 1.53125,0 2.45312,0.40625 0.92188,0.40625 1.4375,1.25 0.53125,0.84375 0.53125,1.765625 0,0.859375 -0.46875,1.625 -0.45312,0.75 -1.39062,1.203125 1.20312,0.359375 1.85937,1.21875 0.65625,0.859375 0.65625,2.015625 0,0.9375 -0.40625,1.75 -0.39062,0.79687 -0.98437,1.23437 -0.57813,0.4375 -1.45313,0.67188 -0.875,0.21875 -2.15625,0.21875 z m 1.78125,-7.75 h 2.875 q 1.1875,0 1.6875,-0.140625 0.67188,-0.203125 1.01563,-0.671875 0.34375,-0.46875 0.34375,-1.171875 0,-0.65625 -0.32813,-1.15625 -0.3125,-0.515625 -0.90625,-0.703125 -0.59375,-0.1875 -2.03125,-0.1875 H 230.373 Z m 0,6.17187 h 3.3125 q 0.85938,0 1.20313,-0.0625 0.60937,-0.10937 1.01562,-0.35937 0.42188,-0.26563 0.6875,-0.75 0.26563,-0.48438 0.26563,-1.125 0,-0.75 -0.39063,-1.296875 -0.375,-0.546875 -1.0625,-0.765625 -0.67187,-0.234375 -1.95312,-0.234375 H 230.373 Z m 16.86545,1.57813 v -1.42188 q -1.125,1.64063 -3.0625,1.64063 -0.85938,0 -1.60938,-0.32813 -0.73437,-0.32812 -1.09375,-0.82812 -0.35937,-0.5 -0.5,-1.21875 -0.10937,-0.46875 -0.10937,-1.53125 v -5.984375 h 1.64062 v 5.359375 q 0,1.28125 0.10938,1.73437 0.15625,0.64063 0.65625,1.01563 0.5,0.375 1.23437,0.375 0.73438,0 1.375,-0.375 0.65625,-0.39063 0.92188,-1.03125 0.26562,-0.65625 0.26562,-1.89063 v -5.187495 h 1.64063 v 9.671875 z m -5,-11.5625 v -1.875 h 1.70312 v 1.875 z m 3.39062,0 v -1.875 h 1.71875 v 1.875 z m 5.00072,8.67187 1.625,-0.25 q 0.125,0.96875 0.75,1.5 0.625,0.51563 1.75,0.51563 1.125,0 1.67188,-0.45313 0.54687,-0.46875 0.54687,-1.09375 0,-0.54687 -0.48437,-0.875 -0.32813,-0.21875 -1.67188,-0.54687 -1.8125,-0.46875 -2.51562,-0.79688 -0.6875,-0.32812 -1.04688,-0.906245 -0.35937,-0.59375 -0.35937,-1.3125 0,-0.640625 0.29687,-1.1875 0.29688,-0.5625 0.8125,-0.921875 0.375,-0.28125 1.03125,-0.46875 0.67188,-0.203125 1.42188,-0.203125 1.14062,0 2,0.328125 0.85937,0.328125 1.26562,0.890625 0.42188,0.5625 0.57813,1.5 l -1.60938,0.21875 q -0.10937,-0.75 -0.64062,-1.171875 -0.51563,-0.421875 -1.46875,-0.421875 -1.14063,0 -1.625,0.375 -0.46875,0.375 -0.46875,0.875 0,0.3125 0.1875,0.578125 0.20312,0.265625 0.64062,0.4375 0.23438,0.09375 1.4375,0.421875 1.75,0.453125 2.4375,0.75 0.6875,0.296875 1.07813,0.859375 0.39062,0.5625 0.39062,1.40625 0,0.82812 -0.48437,1.54687 -0.46875,0.71875 -1.375,1.125 -0.90625,0.39063 -2.04688,0.39063 -1.875,0 -2.875,-0.78125 -0.98437,-0.78125 -1.25,-2.32813 z"
         id="path7183" />
      <path
         style="fill:#eeeeee;fill-rule:evenodd"
         inkscape:connector-curvature="0"
         d="m 148.39365,261.486 v 0 c 0,-7.36113 21.27176,-13.32851 47.51181,-13.32851 26.24005,0 47.51181,5.96738 47.51181,13.32851 v 53.31409 c 0,7.36114 -21.27176,13.32852 -47.51181,13.32852 -26.24005,0 -47.51181,-5.96738 -47.51181,-13.32852 z"
         id="path7185" />
      <path
         style="fill:#000000;fill-opacity:0;fill-rule:evenodd"
         inkscape:connector-curvature="0"
         d="m 243.41727,261.486 v 0 c 0,7.36114 -21.27176,13.32852 -47.51181,13.32852 -26.24005,0 -47.51181,-5.96737 -47.51181,-13.32852"
         id="path7187" />
      <path
         style="fill:#000000;fill-opacity:0;fill-rule:evenodd"
         inkscape:connector-curvature="0"
         d="m 148.39365,261.486 v 0 c 0,-7.36113 21.27176,-13.32851 47.51181,-13.32851 26.24005,0 47.51181,5.96738 47.51181,13.32851 v 53.31409 c 0,7.36114 -21.27176,13.32852 -47.51181,13.32852 -26.24005,0 -47.51181,-5.96738 -47.51181,-13.32852 z"
         id="path7189" />
      <path
         style="fill-rule:evenodd;stroke:#595959;stroke-width:1;stroke-linecap:butt;stroke-linejoin:round"
         inkscape:connector-curvature="0"
         d="m 243.41727,261.486 v 0 c 0,7.36114 -21.27176,13.32852 -47.51181,13.32852 -26.24005,0 -47.51181,-5.96737 -47.51181,-13.32852"
         id="path7191" />
      <path
         style="fill-rule:evenodd;stroke:#595959;stroke-width:1;stroke-linecap:butt;stroke-linejoin:round"
         inkscape:connector-curvature="0"
         d="m 148.39365,261.486 v 0 c 0,-7.36113 21.27176,-13.32851 47.51181,-13.32851 26.24005,0 47.51181,5.96738 47.51181,13.32851 v 53.31409 c 0,7.36114 -21.27176,13.32852 -47.51181,13.32852 -26.24005,0 -47.51181,-5.96738 -47.51181,-13.32852 z"
         id="path7193" />
      <path
         style="fill:#000000;fill-rule:nonzero"
         inkscape:connector-curvature="0"
         d="m 177.60135,290.7273 v -13.35937 h 2.65625 l 3.15625,9.45312 q 0.4375,1.32813 0.64062,1.98438 0.23438,-0.73438 0.70313,-2.14063 l 3.20312,-9.29687 h 2.375 v 13.35937 h -1.70312 v -11.17187 l -3.875,11.17187 h -1.59375 l -3.85938,-11.375 v 11.375 z m 15.58768,0 v -13.35937 h 4.60937 q 1.54688,0 2.375,0.20312 1.14063,0.25 1.95313,0.95313 1.0625,0.89062 1.57812,2.28125 0.53125,1.39062 0.53125,3.17187 0,1.51563 -0.35937,2.70313 -0.35938,1.17187 -0.92188,1.9375 -0.54687,0.76562 -1.20312,1.21875 -0.65625,0.4375 -1.59375,0.67187 -0.9375,0.21875 -2.14063,0.21875 z m 1.76562,-1.57812 h 2.85938 q 1.3125,0 2.0625,-0.23438 0.75,-0.25 1.20312,-0.70312 0.625,-0.625 0.96875,-1.6875 0.35938,-1.0625 0.35938,-2.57813 0,-2.09375 -0.6875,-3.21875 -0.6875,-1.125 -1.67188,-1.5 -0.70312,-0.28125 -2.28125,-0.28125 h -2.8125 z m 11.6292,1.57812 v -13.35937 h 1.78125 v 11.78125 h 6.5625 v 1.57812 z"
         id="path7195" />
      <path
         style="fill:#000000;fill-rule:nonzero"
         inkscape:connector-curvature="0"
         d="m 182.11171,312.7273 h -1.64063 v -10.45312 q -0.59375,0.5625 -1.5625,1.14062 -0.95312,0.5625 -1.71875,0.84375 v -1.59375 q 1.375,-0.64062 2.40625,-1.5625 1.03125,-0.92187 1.45313,-1.78125 h 1.0625 z m 5.11009,0 v -1.875 h 1.875 v 1.875 z m 4.27706,-6.59375 q 0,-2.35937 0.48437,-3.79687 0.48438,-1.45313 1.4375,-2.23438 0.96875,-0.78125 2.42188,-0.78125 1.07812,0 1.89062,0.4375 0.8125,0.42188 1.32813,1.25 0.53125,0.8125 0.82812,1.98438 0.3125,1.15625 0.3125,3.14062 0,2.35938 -0.48437,3.8125 -0.48438,1.4375 -1.45313,2.23438 -0.95312,0.78125 -2.42187,0.78125 -1.92188,0 -3.03125,-1.39063 -1.3125,-1.67187 -1.3125,-5.4375 z m 1.67187,0 q 0,3.29688 0.76563,4.39063 0.78125,1.07812 1.90625,1.07812 1.14062,0 1.90625,-1.09375 0.76562,-1.09375 0.76562,-4.375 0,-3.29687 -0.76562,-4.375 -0.76563,-1.07812 -1.92188,-1.07812 -1.125,0 -1.79687,0.95312 -0.85938,1.21875 -0.85938,4.5 z m 9.61009,6.59375 v -1.875 h 1.875 v 1.875 z m 10.44893,0 h -1.64062 v -10.45312 q -0.59375,0.5625 -1.5625,1.14062 -0.95313,0.5625 -1.71875,0.84375 v -1.59375 q 1.375,-0.64062 2.40625,-1.5625 1.03125,-0.92187 1.45312,-1.78125 h 1.0625 z"
         id="path7197" />
      <path
         style="fill:#eeeeee;fill-rule:evenodd"
         inkscape:connector-curvature="0"
         d="m 562.1259,261.486 v 0 c 0,-7.36113 21.27179,-13.32851 47.51184,-13.32851 26.24005,0 47.51178,5.96738 47.51178,13.32851 v 53.31409 c 0,7.36114 -21.27173,13.32852 -47.51178,13.32852 -26.24005,0 -47.51184,-5.96738 -47.51184,-13.32852 z"
         id="path7199" />
      <path
         style="fill:#000000;fill-opacity:0;fill-rule:evenodd"
         inkscape:connector-curvature="0"
         d="m 657.14954,261.486 v 0 c 0,7.36114 -21.27173,13.32852 -47.51178,13.32852 -26.24005,0 -47.51184,-5.96737 -47.51184,-13.32852"
         id="path7201" />
      <path
         style="fill:#000000;fill-opacity:0;fill-rule:evenodd"
         inkscape:connector-curvature="0"
         d="m 562.1259,261.486 v 0 c 0,-7.36113 21.27179,-13.32851 47.51184,-13.32851 26.24005,0 47.51178,5.96738 47.51178,13.32851 v 53.31409 c 0,7.36114 -21.27173,13.32852 -47.51178,13.32852 -26.24005,0 -47.51184,-5.96738 -47.51184,-13.32852 z"
         id="path7203" />
      <path
         style="fill-rule:evenodd;stroke:#595959;stroke-width:1;stroke-linecap:butt;stroke-linejoin:round"
         inkscape:connector-curvature="0"
         d="m 657.14954,261.486 v 0 c 0,7.36114 -21.27173,13.32852 -47.51178,13.32852 -26.24005,0 -47.51184,-5.96737 -47.51184,-13.32852"
         id="path7205" />
      <path
         style="fill-rule:evenodd;stroke:#595959;stroke-width:1;stroke-linecap:butt;stroke-linejoin:round"
         inkscape:connector-curvature="0"
         d="m 562.1259,261.486 v 0 c 0,-7.36113 21.27179,-13.32851 47.51184,-13.32851 26.24005,0 47.51178,5.96738 47.51178,13.32851 v 53.31409 c 0,7.36114 -21.27173,13.32852 -47.51178,13.32852 -26.24005,0 -47.51184,-5.96738 -47.51184,-13.32852 z"
         id="path7207" />
      <path
         style="fill:#000000;fill-rule:nonzero"
         inkscape:connector-curvature="0"
         d="m 591.3336,290.7273 v -13.35937 h 2.65625 l 3.15625,9.45312 q 0.4375,1.32813 0.64063,1.98438 0.23437,-0.73438 0.70312,-2.14063 l 3.20313,-9.29687 h 2.375 v 13.35937 h -1.70313 v -11.17187 l -3.875,11.17187 h -1.59375 l -3.85937,-11.375 v 11.375 z m 15.58771,0 v -13.35937 h 4.60937 q 1.54688,0 2.375,0.20312 1.14063,0.25 1.95313,0.95313 1.0625,0.89062 1.57812,2.28125 0.53125,1.39062 0.53125,3.17187 0,1.51563 -0.35937,2.70313 -0.35938,1.17187 -0.92188,1.9375 -0.54687,0.76562 -1.20312,1.21875 -0.65625,0.4375 -1.59375,0.67187 -0.9375,0.21875 -2.14063,0.21875 z m 1.76562,-1.57812 h 2.85938 q 1.3125,0 2.0625,-0.23438 0.75,-0.25 1.20312,-0.70312 0.625,-0.625 0.96875,-1.6875 0.35938,-1.0625 0.35938,-2.57813 0,-2.09375 -0.6875,-3.21875 -0.6875,-1.125 -1.67188,-1.5 -0.70312,-0.28125 -2.28125,-0.28125 h -2.8125 z m 11.62921,1.57812 v -13.35937 h 1.78125 v 11.78125 h 6.5625 v 1.57812 z"
         id="path7209" />
      <path
         style="fill:#000000;fill-rule:nonzero"
         inkscape:connector-curvature="0"
         d="m 589.6721,306.13354 q 0,-2.35938 0.48437,-3.79688 0.48438,-1.45312 1.4375,-2.23437 0.96875,-0.78125 2.42188,-0.78125 1.07812,0 1.89062,0.4375 0.8125,0.42187 1.32813,1.25 0.53125,0.8125 0.82812,1.98437 0.3125,1.15625 0.3125,3.14063 0,2.35937 -0.48437,3.8125 -0.48438,1.4375 -1.45313,2.23437 -0.95312,0.78125 -2.42187,0.78125 -1.92188,0 -3.03125,-1.39062 -1.3125,-1.67188 -1.3125,-5.4375 z m 1.67187,0 q 0,3.29687 0.76563,4.39062 0.78125,1.07813 1.90625,1.07813 1.14062,0 1.90625,-1.09375 0.76562,-1.09375 0.76562,-4.375 0,-3.29688 -0.76562,-4.375 -0.76563,-1.07813 -1.92188,-1.07813 -1.125,0 -1.79687,0.95313 -0.85938,1.21875 -0.85938,4.5 z m 9.61011,6.59375 v -1.875 h 1.875 v 1.875 z m 6.79267,-7.23438 q -1.01563,-0.375 -1.51563,-1.0625 -0.48437,-0.70312 -0.48437,-1.67187 0,-1.45313 1.04687,-2.4375 1.04688,-1 2.78125,-1 1.75,0 2.8125,1.01562 1.07813,1.01563 1.07813,2.46875 0,0.9375 -0.5,1.625 -0.48438,0.6875 -1.46875,1.0625 1.21875,0.39063 1.85937,1.28125 0.65625,0.89063 0.65625,2.14063 0,1.70312 -1.21875,2.875 -1.21875,1.17187 -3.1875,1.17187 -1.98437,0 -3.20312,-1.17187 -1.20313,-1.17188 -1.20313,-2.92188 0,-1.3125 0.65625,-2.1875 0.67188,-0.875 1.89063,-1.1875 z m -0.32813,-2.78125 q 0,0.9375 0.60938,1.54688 0.60937,0.59375 1.59375,0.59375 0.9375,0 1.54687,-0.59375 0.60938,-0.59375 0.60938,-1.45313 0,-0.90625 -0.625,-1.51562 -0.625,-0.625 -1.5625,-0.625 -0.9375,0 -1.5625,0.60937 -0.60938,0.59375 -0.60938,1.4375 z m -0.53125,6.15625 q 0,0.70313 0.32813,1.35938 0.34375,0.65625 1,1.01562 0.65625,0.35938 1.40625,0.35938 1.17187,0 1.9375,-0.75 0.76562,-0.75 0.76562,-1.92188 0,-1.1875 -0.79687,-1.95312 -0.78125,-0.78125 -1.95313,-0.78125 -1.15625,0 -1.92187,0.76562 -0.76563,0.76563 -0.76563,1.90625 z m 9.62573,3.85938 v -1.875 h 1.875 v 1.875 z m 10.44892,0 h -1.64063 v -10.45313 q -0.59375,0.5625 -1.5625,1.14063 -0.95312,0.5625 -1.71875,0.84375 v -1.59375 q 1.375,-0.64063 2.40625,-1.5625 1.03125,-0.92188 1.45313,-1.78125 h 1.0625 z"
         id="path7211" />
      <path
         style="fill:#eeeeee;fill-rule:evenodd"
         inkscape:connector-curvature="0"
         d="m 84.3937,147.35564 h 95.02363 v 57.00787 H 84.3937 Z"
         id="path7213" />
      <path
         style="fill-rule:evenodd;stroke:#595959;stroke-width:1;stroke-linecap:butt;stroke-linejoin:round"
         inkscape:connector-curvature="0"
         d="m 84.3937,147.35564 h 95.02363 v 57.00787 H 84.3937 Z"
         id="path7215" />
      <path
         style="fill:#000000;fill-rule:nonzero"
         inkscape:connector-curvature="0"
         d="m 117.36279,171.77957 v -13.35938 h 5.01563 q 1.53125,0 2.45312,0.40625 0.92188,0.40625 1.4375,1.25 0.53125,0.84375 0.53125,1.76563 0,0.85937 -0.46875,1.625 -0.45312,0.75 -1.39062,1.20312 1.20312,0.35938 1.85937,1.21875 0.65625,0.85938 0.65625,2.01563 0,0.9375 -0.40625,1.75 -0.39062,0.79687 -0.98437,1.23437 -0.57813,0.4375 -1.45313,0.67188 -0.875,0.21875 -2.15625,0.21875 z m 1.78125,-7.75 h 2.875 q 1.1875,0 1.6875,-0.14063 0.67188,-0.20312 1.01563,-0.67187 0.34375,-0.46875 0.34375,-1.17188 0,-0.65625 -0.32813,-1.15625 -0.3125,-0.51562 -0.90625,-0.70312 -0.59375,-0.1875 -2.03125,-0.1875 h -2.65625 z m 0,6.17187 h 3.3125 q 0.85938,0 1.20313,-0.0625 0.60937,-0.10937 1.01562,-0.35937 0.42188,-0.26563 0.6875,-0.75 0.26563,-0.48438 0.26563,-1.125 0,-0.75 -0.39063,-1.29688 -0.375,-0.54687 -1.0625,-0.76562 -0.67187,-0.23438 -1.95312,-0.23438 h -3.07813 z m 10.74045,1.57813 v -13.35938 h 5.04687 q 1.32813,0 2.03125,0.125 0.96875,0.17188 1.64063,0.64063 0.67187,0.45312 1.07812,1.28125 0.40625,0.82812 0.40625,1.82812 0,1.70313 -1.09375,2.89063 -1.07812,1.17187 -3.92187,1.17187 h -3.42188 v 5.42188 z m 1.76562,-7 h 3.45313 q 1.71875,0 2.4375,-0.64063 0.71875,-0.64062 0.71875,-1.79687 0,-0.84375 -0.42188,-1.4375 -0.42187,-0.59375 -1.125,-0.78125 -0.4375,-0.125 -1.64062,-0.125 h -3.42188 z"
         id="path7217" />
      <path
         style="fill:#000000;fill-rule:nonzero"
         inkscape:connector-curvature="0"
         d="m 145.53119,170.77957 h -1.09375 v -6.96875 q -0.40625,0.375 -1.04688,0.75 -0.64062,0.375 -1.14062,0.57812 v -1.0625 q 0.90625,-0.4375 1.59375,-1.04687 0.6875,-0.60938 0.96875,-1.1875 h 0.71875 z"
         id="path7219" />
      <path
         style="fill:#000000;fill-rule:nonzero"
         inkscape:connector-curvature="0"
         d="m 99.20305,193.77957 5.125,-13.35938 h 1.90625 l 5.46875,13.35938 h -2.01562 l -1.54688,-4.04688 h -5.59375 l -1.46875,4.04688 z m 3.85938,-5.48438 h 4.53125 l -1.40625,-3.70312 q -0.625,-1.6875 -0.9375,-2.76563 -0.26563,1.28125 -0.71875,2.54688 z m 16.11544,5.48438 v -1.21875 q -0.90625,1.4375 -2.70312,1.4375 -1.15625,0 -2.125,-0.64063 -0.96875,-0.64062 -1.5,-1.78125 -0.53125,-1.14062 -0.53125,-2.625 0,-1.45312 0.48437,-2.625 0.48438,-1.1875 1.4375,-1.8125 0.96875,-0.625 2.17188,-0.625 0.875,0 1.54687,0.375 0.6875,0.35938 1.10938,0.95313 v -4.79688 h 1.64062 v 13.35938 z m -5.17187,-4.82813 q 0,1.85938 0.78125,2.78125 0.78125,0.92188 1.84375,0.92188 1.07812,0 1.82812,-0.875 0.75,-0.89063 0.75,-2.6875 0,-1.98438 -0.76562,-2.90625 -0.76563,-0.9375 -1.89063,-0.9375 -1.07812,0 -1.8125,0.89062 -0.73437,0.89063 -0.73437,2.8125 z m 15.59447,3.64063 q -0.92188,0.76562 -1.76563,1.09375 -0.82812,0.3125 -1.79687,0.3125 -1.59375,0 -2.45313,-0.78125 -0.85937,-0.78125 -0.85937,-1.98438 0,-0.71875 0.32812,-1.29687 0.32813,-0.59375 0.84375,-0.9375 0.53125,-0.35938 1.1875,-0.54688 0.46875,-0.125 1.45313,-0.25 1.98437,-0.23437 2.92187,-0.5625 0.0156,-0.34375 0.0156,-0.42187 0,-1 -0.46875,-1.42188 -0.625,-0.54687 -1.875,-0.54687 -1.15625,0 -1.70313,0.40625 -0.54687,0.40625 -0.8125,1.42187 l -1.60937,-0.21875 q 0.21875,-1.01562 0.71875,-1.64062 0.5,-0.64063 1.45312,-0.98438 0.95313,-0.34375 2.1875,-0.34375 1.25,0 2.01563,0.29688 0.78125,0.28125 1.14062,0.73437 0.375,0.4375 0.51563,1.10938 0.0781,0.42187 0.0781,1.51562 v 2.1875 q 0,2.28125 0.10938,2.89063 0.10937,0.59375 0.40625,1.15625 h -1.70313 q -0.26562,-0.51563 -0.32812,-1.1875 z m -0.14063,-3.67188 q -0.89062,0.375 -2.67187,0.625 -1.01563,0.14063 -1.4375,0.32813 -0.42188,0.1875 -0.65625,0.53125 -0.21875,0.34375 -0.21875,0.78125 0,0.65625 0.5,1.09375 0.5,0.4375 1.45312,0.4375 0.9375,0 1.67188,-0.40625 0.75,-0.42188 1.09375,-1.14063 0.26562,-0.5625 0.26562,-1.64062 z m 4.20384,8.5625 v -13.375 h 1.48438 v 1.25 q 0.53125,-0.73437 1.1875,-1.09375 0.67187,-0.375 1.625,-0.375 1.23437,0 2.17187,0.64063 0.95313,0.625 1.4375,1.79687 0.48438,1.15625 0.48438,2.54688 0,1.48437 -0.53125,2.67187 -0.53125,1.1875 -1.54688,1.82813 -1.01562,0.625 -2.14062,0.625 -0.8125,0 -1.46875,-0.34375 -0.65625,-0.34375 -1.0625,-0.875 v 4.70312 z m 1.48438,-8.48437 q 0,1.85937 0.75,2.76562 0.76562,0.89063 1.82812,0.89063 1.09375,0 1.875,-0.92188 0.78125,-0.9375 0.78125,-2.875 0,-1.84375 -0.76562,-2.76562 -0.75,-0.92188 -1.8125,-0.92188 -1.04688,0 -1.85938,0.98438 -0.79687,0.96875 -0.79687,2.84375 z m 12.46946,3.3125 0.23438,1.45312 q -0.6875,0.14063 -1.23438,0.14063 -0.89062,0 -1.39062,-0.28125 -0.48438,-0.28125 -0.6875,-0.73438 -0.20313,-0.46875 -0.20313,-1.9375 v -5.57812 h -1.20312 v -1.26563 h 1.20312 v -2.39062 l 1.625,-0.98438 v 3.375 h 1.65625 v 1.26563 h -1.65625 v 5.67187 q 0,0.6875 0.0781,0.89063 0.0937,0.20312 0.28125,0.32812 0.20312,0.10938 0.57812,0.10938 0.26563,0 0.71875,-0.0625 z m 0.99581,-3.375 q 0,-2.6875 1.48437,-3.96875 1.25,-1.07813 3.04688,-1.07813 2,0 3.26562,1.3125 1.26563,1.29688 1.26563,3.60938 0,1.85937 -0.5625,2.9375 -0.5625,1.0625 -1.64063,1.65625 -1.0625,0.59375 -2.32812,0.59375 -2.03125,0 -3.28125,-1.29688 -1.25,-1.3125 -1.25,-3.76562 z m 1.6875,0 q 0,1.85937 0.79687,2.79687 0.8125,0.92188 2.04688,0.92188 1.21875,0 2.03125,-0.92188 0.8125,-0.9375 0.8125,-2.84375 0,-1.79687 -0.8125,-2.71875 -0.8125,-0.92187 -2.03125,-0.92187 -1.23438,0 -2.04688,0.92187 -0.79687,0.90625 -0.79687,2.76563 z m 9.28196,4.84375 v -9.67188 h 1.46875 v 1.46875 q 0.5625,-1.03125 1.03125,-1.35937 0.48438,-0.32813 1.0625,-0.32813 0.82813,0 1.6875,0.53125 l -0.5625,1.51563 q -0.60937,-0.35938 -1.20312,-0.35938 -0.54688,0 -0.96875,0.32813 -0.42188,0.32812 -0.60938,0.89062 -0.28125,0.875 -0.28125,1.92188 v 5.0625 z"
         id="path7221" />
      <path
         style="fill:#eeeeee;fill-rule:evenodd"
         inkscape:connector-curvature="0"
         d="m 493.2,147.35564 h 95.02362 v 57.00787 H 493.2 Z"
         id="path7223" />
      <path
         style="fill-rule:evenodd;stroke:#595959;stroke-width:1;stroke-linecap:butt;stroke-linejoin:round"
         inkscape:connector-curvature="0"
         d="m 493.2,147.35564 h 95.02362 v 57.00787 H 493.2 Z"
         id="path7225" />
      <path
         style="fill:#000000;fill-rule:nonzero"
         inkscape:connector-curvature="0"
         d="m 526.16907,171.77957 v -13.35938 h 5.01563 q 1.53125,0 2.45312,0.40625 0.92188,0.40625 1.4375,1.25 0.53125,0.84375 0.53125,1.76563 0,0.85937 -0.46875,1.625 -0.45312,0.75 -1.39062,1.20312 1.20312,0.35938 1.85937,1.21875 0.65625,0.85938 0.65625,2.01563 0,0.9375 -0.40625,1.75 -0.39062,0.79687 -0.98437,1.23437 -0.57813,0.4375 -1.45313,0.67188 -0.875,0.21875 -2.15625,0.21875 z m 1.78125,-7.75 h 2.875 q 1.1875,0 1.6875,-0.14063 0.67188,-0.20312 1.01563,-0.67187 0.34375,-0.46875 0.34375,-1.17188 0,-0.65625 -0.32813,-1.15625 -0.3125,-0.51562 -0.90625,-0.70312 -0.59375,-0.1875 -2.03125,-0.1875 h -2.65625 z m 0,6.17187 h 3.3125 q 0.85938,0 1.20313,-0.0625 0.60937,-0.10937 1.01562,-0.35937 0.42188,-0.26563 0.6875,-0.75 0.26563,-0.48438 0.26563,-1.125 0,-0.75 -0.39063,-1.29688 -0.375,-0.54687 -1.0625,-0.76562 -0.67187,-0.23438 -1.95312,-0.23438 h -3.07813 z m 10.74048,1.57813 v -13.35938 h 5.04687 q 1.32813,0 2.03125,0.125 0.96875,0.17188 1.64063,0.64063 0.67187,0.45312 1.07812,1.28125 0.40625,0.82812 0.40625,1.82812 0,1.70313 -1.09375,2.89063 -1.07812,1.17187 -3.92187,1.17187 h -3.42188 v 5.42188 z m 1.76562,-7 h 3.45313 q 1.71875,0 2.4375,-0.64063 0.71875,-0.64062 0.71875,-1.79687 0,-0.84375 -0.42188,-1.4375 -0.42187,-0.59375 -1.125,-0.78125 -0.4375,-0.125 -1.64062,-0.125 h -3.42188 z"
         id="path7227" />
      <path
         style="fill:#000000;fill-rule:nonzero"
         inkscape:connector-curvature="0"
         d="m 555.96246,169.7327 v 1.04687 h -5.89063 q -0.0156,-0.39062 0.125,-0.76562 0.23438,-0.59375 0.71875,-1.17188 0.5,-0.59375 1.4375,-1.35937 1.45313,-1.1875 1.95313,-1.875 0.51562,-0.70313 0.51562,-1.3125 0,-0.65625 -0.46875,-1.09375 -0.45312,-0.45313 -1.20312,-0.45313 -0.79688,0 -1.26563,0.46875 -0.46875,0.46875 -0.48437,1.3125 l -1.125,-0.10937 q 0.125,-1.26563 0.875,-1.92188 0.75,-0.65625 2.01562,-0.65625 1.28125,0 2.03125,0.71875 0.75,0.70313 0.75,1.75 0,0.53125 -0.21875,1.04688 -0.21875,0.51562 -0.73437,1.09375 -0.5,0.5625 -1.67188,1.5625 -0.98437,0.82812 -1.26562,1.125 -0.28125,0.29687 -0.46875,0.59375 z"
         id="path7229" />
      <path
         style="fill:#000000;fill-rule:nonzero"
         inkscape:connector-curvature="0"
         d="m 508.00934,193.77957 5.125,-13.35938 h 1.90625 l 5.46875,13.35938 h -2.01562 l -1.54688,-4.04688 h -5.59375 l -1.46875,4.04688 z m 3.85937,-5.48438 h 4.53126 l -1.40625,-3.70312 q -0.625,-1.6875 -0.9375,-2.76563 -0.26563,1.28125 -0.71875,2.54688 z m 16.11548,5.48438 v -1.21875 q -0.90625,1.4375 -2.70312,1.4375 -1.15625,0 -2.125,-0.64063 -0.96875,-0.64062 -1.5,-1.78125 -0.53125,-1.14062 -0.53125,-2.625 0,-1.45312 0.48437,-2.625 0.48438,-1.1875 1.4375,-1.8125 0.96875,-0.625 2.17188,-0.625 0.875,0 1.54687,0.375 0.6875,0.35938 1.10938,0.95313 v -4.79688 h 1.64062 v 13.35938 z m -5.17187,-4.82813 q 0,1.85938 0.78125,2.78125 0.78125,0.92188 1.84375,0.92188 1.07812,0 1.82812,-0.875 0.75,-0.89063 0.75,-2.6875 0,-1.98438 -0.76562,-2.90625 -0.76563,-0.9375 -1.89063,-0.9375 -1.07812,0 -1.8125,0.89062 -0.73437,0.89063 -0.73437,2.8125 z m 15.59442,3.64063 q -0.92187,0.76562 -1.76562,1.09375 -0.82813,0.3125 -1.79688,0.3125 -1.59375,0 -2.45312,-0.78125 -0.85938,-0.78125 -0.85938,-1.98438 0,-0.71875 0.32813,-1.29687 0.32812,-0.59375 0.84375,-0.9375 0.53125,-0.35938 1.1875,-0.54688 0.46875,-0.125 1.45312,-0.25 1.98438,-0.23437 2.92188,-0.5625 0.0156,-0.34375 0.0156,-0.42187 0,-1 -0.46875,-1.42188 -0.625,-0.54687 -1.875,-0.54687 -1.15625,0 -1.70312,0.40625 -0.54688,0.40625 -0.8125,1.42187 l -1.60938,-0.21875 q 0.21875,-1.01562 0.71875,-1.64062 0.5,-0.64063 1.45313,-0.98438 0.95312,-0.34375 2.1875,-0.34375 1.25,0 2.01562,0.29688 0.78125,0.28125 1.14063,0.73437 0.375,0.4375 0.51562,1.10938 0.0781,0.42187 0.0781,1.51562 v 2.1875 q 0,2.28125 0.10937,2.89063 0.10938,0.59375 0.40625,1.15625 h -1.70312 q -0.26563,-0.51563 -0.32813,-1.1875 z m -0.14062,-3.67188 q -0.89063,0.375 -2.67188,0.625 -1.01562,0.14063 -1.4375,0.32813 -0.42187,0.1875 -0.65625,0.53125 -0.21875,0.34375 -0.21875,0.78125 0,0.65625 0.5,1.09375 0.5,0.4375 1.45313,0.4375 0.9375,0 1.67187,-0.40625 0.75,-0.42188 1.09375,-1.14063 0.26563,-0.5625 0.26563,-1.64062 z m 4.20385,8.5625 v -13.375 h 1.48438 v 1.25 q 0.53125,-0.73437 1.1875,-1.09375 0.67187,-0.375 1.625,-0.375 1.23437,0 2.17187,0.64063 0.95313,0.625 1.4375,1.79687 0.48438,1.15625 0.48438,2.54688 0,1.48437 -0.53125,2.67187 -0.53125,1.1875 -1.54688,1.82813 -1.01562,0.625 -2.14062,0.625 -0.8125,0 -1.46875,-0.34375 -0.65625,-0.34375 -1.0625,-0.875 v 4.70312 z m 1.48438,-8.48437 q 0,1.85937 0.75,2.76562 0.76562,0.89063 1.82812,0.89063 1.09375,0 1.875,-0.92188 0.78125,-0.9375 0.78125,-2.875 0,-1.84375 -0.76562,-2.76562 -0.75,-0.92188 -1.8125,-0.92188 -1.04688,0 -1.85938,0.98438 -0.79687,0.96875 -0.79687,2.84375 z m 12.46948,3.3125 0.23437,1.45312 q -0.6875,0.14063 -1.23437,0.14063 -0.89063,0 -1.39063,-0.28125 -0.48437,-0.28125 -0.6875,-0.73438 -0.20312,-0.46875 -0.20312,-1.9375 v -5.57812 h -1.20313 v -1.26563 h 1.20313 v -2.39062 l 1.625,-0.98438 v 3.375 h 1.65625 v 1.26563 h -1.65625 v 5.67187 q 0,0.6875 0.0781,0.89063 0.0937,0.20312 0.28125,0.32812 0.20313,0.10938 0.57813,0.10938 0.26562,0 0.71875,-0.0625 z m 0.99579,-3.375 q 0,-2.6875 1.48437,-3.96875 1.25,-1.07813 3.04688,-1.07813 2,0 3.26562,1.3125 1.26563,1.29688 1.26563,3.60938 0,1.85937 -0.5625,2.9375 -0.5625,1.0625 -1.64063,1.65625 -1.0625,0.59375 -2.32812,0.59375 -2.03125,0 -3.28125,-1.29688 -1.25,-1.3125 -1.25,-3.76562 z m 1.6875,0 q 0,1.85937 0.79687,2.79687 0.8125,0.92188 2.04688,0.92188 1.21875,0 2.03125,-0.92188 0.8125,-0.9375 0.8125,-2.84375 0,-1.79687 -0.8125,-2.71875 -0.8125,-0.92187 -2.03125,-0.92187 -1.23438,0 -2.04688,0.92187 -0.79687,0.90625 -0.79687,2.76563 z m 9.28198,4.84375 v -9.67188 h 1.46875 v 1.46875 q 0.5625,-1.03125 1.03125,-1.35937 0.48437,-0.32813 1.0625,-0.32813 0.82812,0 1.6875,0.53125 l -0.5625,1.51563 q -0.60938,-0.35938 -1.20313,-0.35938 -0.54687,0 -0.96875,0.32813 -0.42187,0.32812 -0.60937,0.89062 -0.28125,0.875 -0.28125,1.92188 v 5.0625 z"
         id="path7231" />
      <path
         style="fill:#eeeeee;fill-rule:evenodd"
         inkscape:connector-curvature="0"
         d="m 161.64699,463.33072 v 0 c 0,-14.48987 14.35509,-26.23624 32.06299,-26.23624 v 0 c 17.7079,0 32.06299,11.74637 32.06299,26.23624 v 0 c 0,14.48987 -14.35509,26.23621 -32.06299,26.23621 v 0 c -17.7079,0 -32.06299,-11.74634 -32.06299,-26.23621 z"
         id="path7233" />
      <path
         style="fill-rule:evenodd;stroke:#595959;stroke-width:1;stroke-linecap:butt;stroke-linejoin:round"
         inkscape:connector-curvature="0"
         d="m 161.64699,463.33072 v 0 c 0,-14.48987 14.35509,-26.23624 32.06299,-26.23624 v 0 c 17.7079,0 32.06299,11.74637 32.06299,26.23624 v 0 c 0,14.48987 -14.35509,26.23621 -32.06299,26.23621 v 0 c -17.7079,0 -32.06299,-11.74634 -32.06299,-26.23621 z"
         id="path7235" />
      <path
         style="fill:#000000;fill-rule:nonzero"
         inkscape:connector-curvature="0"
         d="m 184.95248,470.2507 v -13.35938 h 4.60937 q 1.54688,0 2.375,0.20313 1.14063,0.25 1.95313,0.95312 1.0625,0.89063 1.57812,2.28125 0.53125,1.39063 0.53125,3.17188 0,1.51562 -0.35937,2.70312 -0.35938,1.17188 -0.92188,1.9375 -0.54687,0.76563 -1.20312,1.21875 -0.65625,0.4375 -1.59375,0.67188 -0.9375,0.21875 -2.14063,0.21875 z m 1.76562,-1.57813 h 2.85938 q 1.3125,0 2.0625,-0.23437 0.75,-0.25 1.20312,-0.70313 0.625,-0.625 0.96875,-1.6875 0.35938,-1.0625 0.35938,-2.57812 0,-2.09375 -0.6875,-3.21875 -0.6875,-1.125 -1.67188,-1.5 -0.70312,-0.28125 -2.28125,-0.28125 h -2.8125 z"
         id="path7237" />
      <path
         style="fill:#000000;fill-rule:nonzero"
         inkscape:connector-curvature="0"
         d="m 201.62856,477.2507 h -1.09375 v -6.96875 q -0.40625,0.375 -1.04688,0.75 -0.64062,0.375 -1.14062,0.57812 v -1.0625 q 0.90625,-0.4375 1.59375,-1.04687 0.6875,-0.60938 0.96875,-1.1875 h 0.71875 z"
         id="path7239" />
      <path
         style="fill:#eeeeee;fill-rule:evenodd"
         inkscape:connector-curvature="0"
         d="m 220.66246,147.35564 h 95.02364 v 57.00787 h -95.02364 z"
         id="path7241" />
      <path
         style="fill-rule:evenodd;stroke:#595959;stroke-width:1;stroke-linecap:butt;stroke-linejoin:round"
         inkscape:connector-curvature="0"
         d="m 220.66246,147.35564 h 95.02364 v 57.00787 h -95.02364 z"
         id="path7243" />
      <path
         style="fill:#000000;fill-rule:nonzero"
         inkscape:connector-curvature="0"
         d="m 243.25903,171.77957 v -13.35938 h 5.01562 q 1.53125,0 2.45313,0.40625 0.92187,0.40625 1.4375,1.25 0.53125,0.84375 0.53125,1.76563 0,0.85937 -0.46875,1.625 -0.45313,0.75 -1.39063,1.20312 1.20313,0.35938 1.85938,1.21875 0.65625,0.85938 0.65625,2.01563 0,0.9375 -0.40625,1.75 -0.39063,0.79687 -0.98438,1.23437 -0.57812,0.4375 -1.45312,0.67188 -0.875,0.21875 -2.15625,0.21875 z m 1.78125,-7.75 h 2.875 q 1.1875,0 1.6875,-0.14063 0.67187,-0.20312 1.01562,-0.67187 0.34375,-0.46875 0.34375,-1.17188 0,-0.65625 -0.32812,-1.15625 -0.3125,-0.51562 -0.90625,-0.70312 -0.59375,-0.1875 -2.03125,-0.1875 h -2.65625 z m 0,6.17187 h 3.3125 q 0.85937,0 1.20312,-0.0625 0.60938,-0.10937 1.01563,-0.35937 0.42187,-0.26563 0.6875,-0.75 0.26562,-0.48438 0.26562,-1.125 0,-0.75 -0.39062,-1.29688 -0.375,-0.54687 -1.0625,-0.76562 -0.67188,-0.23438 -1.95313,-0.23438 h -3.07812 z m 10.74045,1.57813 v -13.35938 h 5.04687 q 1.32813,0 2.03125,0.125 0.96875,0.17188 1.64063,0.64063 0.67187,0.45312 1.07812,1.28125 0.40625,0.82812 0.40625,1.82812 0,1.70313 -1.09375,2.89063 -1.07812,1.17187 -3.92187,1.17187 h -3.42188 v 5.42188 z m 1.76562,-7 h 3.45313 q 1.71875,0 2.4375,-0.64063 0.71875,-0.64062 0.71875,-1.79687 0,-0.84375 -0.42188,-1.4375 -0.42187,-0.59375 -1.125,-0.78125 -0.4375,-0.125 -1.64062,-0.125 h -3.42188 z"
         id="path7245" />
      <path
         style="fill:#000000;fill-rule:nonzero"
         inkscape:connector-curvature="0"
         d="m 271.42743,170.77957 h -1.09375 v -6.96875 q -0.40625,0.375 -1.04687,0.75 -0.64063,0.375 -1.14063,0.57812 v -1.0625 q 0.90625,-0.4375 1.59375,-1.04687 0.6875,-0.60938 0.96875,-1.1875 h 0.71875 z m 3.40143,0 v -1.25 h 1.25 v 1.25 z m 2.8461,-4.39063 q 0,-1.57812 0.32812,-2.53125 0.32813,-0.96875 0.96875,-1.48437 0.64063,-0.53125 1.60938,-0.53125 0.71875,0 1.25,0.29687 0.54687,0.28125 0.89062,0.82813 0.35938,0.53125 0.5625,1.3125 0.20313,0.78125 0.20313,2.10937 0,1.5625 -0.32813,2.53125 -0.32812,0.95313 -0.96875,1.48438 -0.64062,0.53125 -1.60937,0.53125 -1.29688,0 -2.03125,-0.92188 -0.875,-1.10937 -0.875,-3.625 z m 1.125,0 q 0,2.1875 0.51562,2.92188 0.51563,0.71875 1.26563,0.71875 0.75,0 1.26562,-0.71875 0.51563,-0.73438 0.51563,-2.92188 0,-2.20312 -0.51563,-2.92187 -0.51562,-0.71875 -1.28125,-0.71875 -0.75,0 -1.20312,0.64062 -0.5625,0.8125 -0.5625,3 z m 6.4014,4.39063 v -1.25 h 1.25 v 1.25 z m 6.97113,0 h -1.09375 v -6.96875 q -0.40625,0.375 -1.04688,0.75 -0.64062,0.375 -1.14062,0.57812 v -1.0625 q 0.90625,-0.4375 1.59375,-1.04687 0.6875,-0.60938 0.96875,-1.1875 h 0.71875 z"
         id="path7247" />
      <path
         style="fill:#000000;fill-rule:nonzero"
         inkscape:connector-curvature="0"
         d="m 245.1915,180.4202 h 1.76562 v 7.71875 q 0,2.01562 -0.45312,3.20312 -0.45313,1.1875 -1.64063,1.9375 -1.1875,0.73438 -3.125,0.73438 -1.875,0 -3.07812,-0.64063 -1.1875,-0.65625 -1.70313,-1.875 -0.5,-1.23437 -0.5,-3.35937 v -7.71875 h 1.76563 v 7.71875 q 0,1.73437 0.3125,2.5625 0.32812,0.8125 1.10937,1.26562 0.79688,0.45313 1.9375,0.45313 1.95313,0 2.78125,-0.89063 0.82813,-0.89062 0.82813,-3.39062 z m 4.5042,17.0625 v -13.375 h 1.48437 v 1.25 q 0.53125,-0.73438 1.1875,-1.09375 0.67188,-0.375 1.625,-0.375 1.23438,0 2.17189,0.64062 0.95313,0.625 1.4375,1.79688 0.48438,1.15625 0.48438,2.54687 0,1.48438 -0.53125,2.67188 -0.53125,1.1875 -1.54688,1.82812 -1.01564,0.625 -2.14064,0.625 -0.8125,0 -1.46875,-0.34375 -0.65625,-0.34375 -1.0625,-0.875 v 4.70313 z m 1.48437,-8.48438 q 0,1.85938 0.75,2.76563 0.76563,0.89062 1.82813,0.89062 1.09375,0 1.875,-0.92187 0.78126,-0.9375 0.78126,-2.875 0,-1.84375 -0.76564,-2.76563 -0.75,-0.92187 -1.8125,-0.92187 -1.04687,0 -1.85937,0.98437 -0.79688,0.96875 -0.79688,2.84375 z m 15.15697,4.78125 v -1.21875 q -0.90625,1.4375 -2.70313,1.4375 -1.15625,0 -2.125,-0.64062 -0.96875,-0.64063 -1.5,-1.78125 -0.53125,-1.14063 -0.53125,-2.625 0,-1.45313 0.48438,-2.625 0.48437,-1.1875 1.4375,-1.8125 0.96875,-0.625 2.17187,-0.625 0.875,0 1.54688,0.375 0.6875,0.35937 1.10937,0.95312 v -4.79687 h 1.64063 v 13.35937 z m -5.17188,-4.82812 q 0,1.85937 0.78125,2.78125 0.78125,0.92187 1.84375,0.92187 1.07813,0 1.82813,-0.875 0.75,-0.89062 0.75,-2.6875 0,-1.98437 -0.76563,-2.90625 -0.76562,-0.9375 -1.89062,-0.9375 -1.07813,0 -1.8125,0.89063 -0.73438,0.89062 -0.73438,2.8125 z m 15.59448,3.64062 q -0.92187,0.76563 -1.76562,1.09375 -0.82813,0.3125 -1.79688,0.3125 -1.59375,0 -2.45312,-0.78125 -0.85938,-0.78125 -0.85938,-1.98437 0,-0.71875 0.32813,-1.29688 0.32812,-0.59375 0.84375,-0.9375 0.53125,-0.35937 1.1875,-0.54687 0.46875,-0.125 1.45312,-0.25 1.98438,-0.23438 2.92188,-0.5625 0.0156,-0.34375 0.0156,-0.42188 0,-1 -0.46875,-1.42187 -0.625,-0.54688 -1.875,-0.54688 -1.15625,0 -1.70312,0.40625 -0.54688,0.40625 -0.8125,1.42188 l -1.60938,-0.21875 q 0.21875,-1.01563 0.71875,-1.64063 0.5,-0.64062 1.45313,-0.98437 0.95312,-0.34375 2.1875,-0.34375 1.25,0 2.01562,0.29687 0.78125,0.28125 1.14063,0.73438 0.375,0.4375 0.51562,1.10937 0.0781,0.42188 0.0781,1.51563 v 2.1875 q 0,2.28125 0.10937,2.89062 0.10938,0.59375 0.40625,1.15625 h -1.70312 q -0.26563,-0.51562 -0.32813,-1.1875 z m -0.14062,-3.67187 q -0.89063,0.375 -2.67188,0.625 -1.01562,0.14062 -1.4375,0.32812 -0.42187,0.1875 -0.65625,0.53125 -0.21875,0.34375 -0.21875,0.78125 0,0.65625 0.5,1.09375 0.5,0.4375 1.45313,0.4375 0.9375,0 1.67187,-0.40625 0.75,-0.42187 1.09375,-1.14062 0.26563,-0.5625 0.26563,-1.64063 z m 7.78195,3.39062 0.23438,1.45313 q -0.6875,0.14062 -1.23438,0.14062 -0.89062,0 -1.39062,-0.28125 -0.48438,-0.28125 -0.6875,-0.73437 -0.20313,-0.46875 -0.20313,-1.9375 v -5.57813 h -1.20312 v -1.26562 h 1.20312 v -2.39063 l 1.625,-0.98437 v 3.375 h 1.65625 v 1.26562 h -1.65625 v 5.67188 q 0,0.6875 0.0781,0.89062 0.0937,0.20313 0.28125,0.32813 0.20312,0.10937 0.57812,0.10937 0.26563,0 0.71875,-0.0625 z m 8.2302,-1.64062 1.6875,0.20312 q -0.40625,1.48438 -1.48438,2.3125 -1.07812,0.8125 -2.76562,0.8125 -2.125,0 -3.375,-1.29687 -1.23438,-1.3125 -1.23438,-3.67188 0,-2.45312 1.25,-3.79687 1.26563,-1.34375 3.26563,-1.34375 1.9375,0 3.15625,1.32812 1.23437,1.3125 1.23437,3.70313 0,0.15625 0,0.4375 h -7.21875 q 0.0937,1.59375 0.90625,2.45312 0.8125,0.84375 2.01563,0.84375 0.90625,0 1.54687,-0.46875 0.64063,-0.48437 1.01563,-1.51562 z m -5.39063,-2.65625 h 5.40625 q -0.10937,-1.21875 -0.625,-1.82813 -0.78125,-0.95312 -2.03125,-0.95312 -1.125,0 -1.90625,0.76562 -0.76562,0.75 -0.84375,2.01563 z m 9.1257,5.76562 v -9.67187 h 1.46875 v 1.46875 q 0.5625,-1.03125 1.03125,-1.35938 0.48438,-0.32812 1.0625,-0.32812 0.82813,0 1.6875,0.53125 l -0.5625,1.51562 q -0.60937,-0.35937 -1.20312,-0.35937 -0.54688,0 -0.96875,0.32812 -0.42188,0.32813 -0.60938,0.89063 -0.28125,0.875 -0.28125,1.92187 v 5.0625 z"
         id="path7249" />
      <path
         style="fill:#eeeeee;fill-rule:evenodd"
         inkscape:connector-curvature="0"
         d="m 629.46875,147.35564 h 95.02362 v 57.00787 h -95.02362 z"
         id="path7251" />
      <path
         style="fill-rule:evenodd;stroke:#595959;stroke-width:1;stroke-linecap:butt;stroke-linejoin:round"
         inkscape:connector-curvature="0"
         d="m 629.46875,147.35564 h 95.02362 v 57.00787 h -95.02362 z"
         id="path7253" />
      <path
         style="fill:#000000;fill-rule:nonzero"
         inkscape:connector-curvature="0"
         d="m 652.0653,171.77957 v -13.35938 h 5.01562 q 1.53125,0 2.45313,0.40625 0.92187,0.40625 1.4375,1.25 0.53125,0.84375 0.53125,1.76563 0,0.85937 -0.46875,1.625 -0.45313,0.75 -1.39063,1.20312 1.20313,0.35938 1.85938,1.21875 0.65625,0.85938 0.65625,2.01563 0,0.9375 -0.40625,1.75 -0.39063,0.79687 -0.98438,1.23437 -0.57812,0.4375 -1.45312,0.67188 -0.875,0.21875 -2.15625,0.21875 z m 1.78125,-7.75 h 2.875 q 1.1875,0 1.6875,-0.14063 0.67187,-0.20312 1.01562,-0.67187 0.34375,-0.46875 0.34375,-1.17188 0,-0.65625 -0.32812,-1.15625 -0.3125,-0.51562 -0.90625,-0.70312 -0.59375,-0.1875 -2.03125,-0.1875 h -2.65625 z m 0,6.17187 h 3.3125 q 0.85937,0 1.20312,-0.0625 0.60938,-0.10937 1.01563,-0.35937 0.42187,-0.26563 0.6875,-0.75 0.26562,-0.48438 0.26562,-1.125 0,-0.75 -0.39062,-1.29688 -0.375,-0.54687 -1.0625,-0.76562 -0.67188,-0.23438 -1.95313,-0.23438 h -3.07812 z m 10.74048,1.57813 v -13.35938 h 5.04687 q 1.32813,0 2.03125,0.125 0.96875,0.17188 1.64063,0.64063 0.67187,0.45312 1.07812,1.28125 0.40625,0.82812 0.40625,1.82812 0,1.70313 -1.09375,2.89063 -1.07812,1.17187 -3.92187,1.17187 h -3.42188 v 5.42188 z m 1.76562,-7 h 3.45313 q 1.71875,0 2.4375,-0.64063 0.71875,-0.64062 0.71875,-1.79687 0,-0.84375 -0.42188,-1.4375 -0.42187,-0.59375 -1.125,-0.78125 -0.4375,-0.125 -1.64062,-0.125 h -3.42188 z"
         id="path7255" />
      <path
         style="fill:#000000;fill-rule:nonzero"
         inkscape:connector-curvature="0"
         d="m 676.1087,166.38895 q 0,-1.57813 0.32812,-2.53125 0.32813,-0.96875 0.96875,-1.48438 0.64063,-0.53125 1.60938,-0.53125 0.71875,0 1.25,0.29688 0.54687,0.28125 0.89062,0.82812 0.35938,0.53125 0.5625,1.3125 0.20313,0.78125 0.20313,2.10938 0,1.5625 -0.32813,2.53125 -0.32812,0.95312 -0.96875,1.48437 -0.64062,0.53125 -1.60937,0.53125 -1.29688,0 -2.03125,-0.92187 -0.875,-1.10938 -0.875,-3.625 z m 1.125,0 q 0,2.1875 0.51562,2.92187 0.51563,0.71875 1.26563,0.71875 0.75,0 1.26562,-0.71875 0.51563,-0.73437 0.51563,-2.92187 0,-2.20313 -0.51563,-2.92188 -0.51562,-0.71875 -1.28125,-0.71875 -0.75,0 -1.20312,0.64063 -0.5625,0.8125 -0.5625,3 z m 6.40143,4.39062 v -1.25 h 1.25 v 1.25 z m 4.53363,-4.82812 q -0.6875,-0.25 -1.01563,-0.70313 -0.32812,-0.46875 -0.32812,-1.10937 0,-0.96875 0.70312,-1.625 0.70313,-0.67188 1.85938,-0.67188 1.15625,0 1.85937,0.6875 0.71875,0.67188 0.71875,1.64063 0,0.60937 -0.32812,1.07812 -0.3125,0.45313 -0.98438,0.70313 0.82813,0.26562 1.25,0.85937 0.4375,0.59375 0.4375,1.42188 0,1.14062 -0.8125,1.92187 -0.8125,0.78125 -2.125,0.78125 -1.3125,0 -2.125,-0.78125 -0.8125,-0.78125 -0.8125,-1.95312 0,-0.85938 0.4375,-1.4375 0.45313,-0.59375 1.26563,-0.8125 z m -0.21875,-1.85938 q 0,0.64063 0.40625,1.04688 0.40625,0.39062 1.04687,0.39062 0.64063,0 1.03125,-0.39062 0.40625,-0.40625 0.40625,-0.98438 0,-0.59375 -0.42187,-1 -0.40625,-0.42187 -1.01563,-0.42187 -0.625,0 -1.04687,0.40625 -0.40625,0.40625 -0.40625,0.95312 z m -0.35938,4.125 q 0,0.46875 0.21875,0.90625 0.23438,0.42188 0.67188,0.67188 0.4375,0.23437 0.9375,0.23437 0.78125,0 1.28125,-0.5 0.51562,-0.5 0.51562,-1.28125 0,-0.79687 -0.53125,-1.3125 -0.51562,-0.51562 -1.3125,-0.51562 -0.76562,0 -1.28125,0.51562 -0.5,0.51563 -0.5,1.28125 z m 6.41706,2.5625 v -1.25 h 1.25 v 1.25 z m 6.97107,0 h -1.09375 v -6.96875 q -0.40625,0.375 -1.04688,0.75 -0.64062,0.375 -1.14062,0.57813 v -1.0625 q 0.90625,-0.4375 1.59375,-1.04688 0.6875,-0.60937 0.96875,-1.1875 h 0.71875 z"
         id="path7257" />
      <path
         style="fill:#000000;fill-rule:nonzero"
         inkscape:connector-curvature="0"
         d="m 653.9978,180.4202 h 1.76562 v 7.71875 q 0,2.01562 -0.45312,3.20312 -0.45313,1.1875 -1.64063,1.9375 -1.1875,0.73438 -3.125,0.73438 -1.875,0 -3.07812,-0.64063 -1.1875,-0.65625 -1.70313,-1.875 -0.5,-1.23437 -0.5,-3.35937 v -7.71875 h 1.76563 v 7.71875 q 0,1.73437 0.3125,2.5625 0.32812,0.8125 1.10937,1.26562 0.79688,0.45313 1.9375,0.45313 1.95313,0 2.78125,-0.89063 0.82813,-0.89062 0.82813,-3.39062 z m 4.50421,17.0625 v -13.375 h 1.48438 v 1.25 q 0.53125,-0.73438 1.1875,-1.09375 0.67187,-0.375 1.625,-0.375 1.23437,0 2.17187,0.64062 0.95313,0.625 1.4375,1.79688 0.48438,1.15625 0.48438,2.54687 0,1.48438 -0.53125,2.67188 -0.53125,1.1875 -1.54688,1.82812 -1.01562,0.625 -2.14062,0.625 -0.8125,0 -1.46875,-0.34375 -0.65625,-0.34375 -1.0625,-0.875 v 4.70313 z m 1.48438,-8.48438 q 0,1.85938 0.75,2.76563 0.76562,0.89062 1.82812,0.89062 1.09375,0 1.875,-0.92187 0.78125,-0.9375 0.78125,-2.875 0,-1.84375 -0.76562,-2.76563 -0.75,-0.92187 -1.8125,-0.92187 -1.04688,0 -1.85938,0.98437 -0.79687,0.96875 -0.79687,2.84375 z m 15.15698,4.78125 v -1.21875 q -0.90625,1.4375 -2.70313,1.4375 -1.15625,0 -2.125,-0.64062 -0.96875,-0.64063 -1.5,-1.78125 -0.53125,-1.14063 -0.53125,-2.625 0,-1.45313 0.48438,-2.625 0.48437,-1.1875 1.4375,-1.8125 0.96875,-0.625 2.17187,-0.625 0.875,0 1.54688,0.375 0.6875,0.35937 1.10937,0.95312 v -4.79687 h 1.64063 v 13.35937 z m -5.17188,-4.82812 q 0,1.85937 0.78125,2.78125 0.78125,0.92187 1.84375,0.92187 1.07813,0 1.82813,-0.875 0.75,-0.89062 0.75,-2.6875 0,-1.98437 -0.76563,-2.90625 -0.76562,-0.9375 -1.89062,-0.9375 -1.07813,0 -1.8125,0.89063 -0.73438,0.89062 -0.73438,2.8125 z m 15.59442,3.64062 q -0.92187,0.76563 -1.76562,1.09375 -0.82813,0.3125 -1.79688,0.3125 -1.59375,0 -2.45312,-0.78125 -0.85938,-0.78125 -0.85938,-1.98437 0,-0.71875 0.32813,-1.29688 0.32812,-0.59375 0.84375,-0.9375 0.53125,-0.35937 1.1875,-0.54687 0.46875,-0.125 1.45312,-0.25 1.98438,-0.23438 2.92188,-0.5625 0.0156,-0.34375 0.0156,-0.42188 0,-1 -0.46875,-1.42187 -0.625,-0.54688 -1.875,-0.54688 -1.15625,0 -1.70312,0.40625 -0.54688,0.40625 -0.8125,1.42188 l -1.60938,-0.21875 q 0.21875,-1.01563 0.71875,-1.64063 0.5,-0.64062 1.45313,-0.98437 0.95312,-0.34375 2.1875,-0.34375 1.25,0 2.01562,0.29687 0.78125,0.28125 1.14063,0.73438 0.375,0.4375 0.51562,1.10937 0.0781,0.42188 0.0781,1.51563 v 2.1875 q 0,2.28125 0.10937,2.89062 0.10938,0.59375 0.40625,1.15625 h -1.70312 q -0.26563,-0.51562 -0.32813,-1.1875 z m -0.14062,-3.67187 q -0.89063,0.375 -2.67188,0.625 -1.01562,0.14062 -1.4375,0.32812 -0.42187,0.1875 -0.65625,0.53125 -0.21875,0.34375 -0.21875,0.78125 0,0.65625 0.5,1.09375 0.5,0.4375 1.45313,0.4375 0.9375,0 1.67187,-0.40625 0.75,-0.42187 1.09375,-1.14062 0.26563,-0.5625 0.26563,-1.64063 z m 7.78198,3.39062 0.23438,1.45313 q -0.6875,0.14062 -1.23438,0.14062 -0.89062,0 -1.39062,-0.28125 -0.48438,-0.28125 -0.6875,-0.73437 -0.20313,-0.46875 -0.20313,-1.9375 v -5.57813 h -1.20312 v -1.26562 h 1.20312 v -2.39063 l 1.625,-0.98437 v 3.375 h 1.65625 v 1.26562 h -1.65625 v 5.67188 q 0,0.6875 0.0781,0.89062 0.0937,0.20313 0.28125,0.32813 0.20312,0.10937 0.57812,0.10937 0.26563,0 0.71875,-0.0625 z m 8.23017,-1.64062 1.6875,0.20312 q -0.40625,1.48438 -1.48438,2.3125 -1.07812,0.8125 -2.76562,0.8125 -2.125,0 -3.375,-1.29687 -1.23438,-1.3125 -1.23438,-3.67188 0,-2.45312 1.25,-3.79687 1.26563,-1.34375 3.26563,-1.34375 1.9375,0 3.15625,1.32812 1.23437,1.3125 1.23437,3.70313 0,0.15625 0,0.4375 h -7.21875 q 0.0937,1.59375 0.90625,2.45312 0.8125,0.84375 2.01563,0.84375 0.90625,0 1.54687,-0.46875 0.64063,-0.48437 1.01563,-1.51562 z m -5.39063,-2.65625 h 5.40625 q -0.10937,-1.21875 -0.625,-1.82813 -0.78125,-0.95312 -2.03125,-0.95312 -1.125,0 -1.90625,0.76562 -0.76562,0.75 -0.84375,2.01563 z m 9.12573,5.76562 v -9.67187 h 1.46875 v 1.46875 q 0.5625,-1.03125 1.03125,-1.35938 0.48438,-0.32812 1.0625,-0.32812 0.82813,0 1.6875,0.53125 l -0.5625,1.51562 q -0.60937,-0.35937 -1.20312,-0.35937 -0.54688,0 -0.96875,0.32812 -0.42188,0.32813 -0.60938,0.89063 -0.28125,0.875 -0.28125,1.92187 v 5.0625 z"
         id="path7259" />
      <path
         style="fill:#eeeeee;fill-rule:evenodd"
         inkscape:connector-curvature="0"
         d="m 575.3793,463.33072 v 0 c 0,-14.48987 14.3551,-26.23624 32.06299,-26.23624 v 0 c 17.70789,0 32.06299,11.74637 32.06299,26.23624 v 0 c 0,14.48987 -14.3551,26.23621 -32.06299,26.23621 v 0 c -17.70789,0 -32.06299,-11.74634 -32.06299,-26.23621 z"
         id="path7261" />
      <path
         style="fill-rule:evenodd;stroke:#595959;stroke-width:1;stroke-linecap:butt;stroke-linejoin:round"
         inkscape:connector-curvature="0"
         d="m 575.3793,463.33072 v 0 c 0,-14.48987 14.3551,-26.23624 32.06299,-26.23624 v 0 c 17.70789,0 32.06299,11.74637 32.06299,26.23624 v 0 c 0,14.48987 -14.3551,26.23621 -32.06299,26.23621 v 0 c -17.70789,0 -32.06299,-11.74634 -32.06299,-26.23621 z"
         id="path7263" />
      <path
         style="fill:#000000;fill-rule:nonzero"
         inkscape:connector-curvature="0"
         d="m 598.68475,470.2507 v -13.35938 h 4.60937 q 1.54688,0 2.375,0.20313 1.14063,0.25 1.95313,0.95312 1.0625,0.89063 1.57812,2.28125 0.53125,1.39063 0.53125,3.17188 0,1.51562 -0.35937,2.70312 -0.35938,1.17188 -0.92188,1.9375 -0.54687,0.76563 -1.20312,1.21875 -0.65625,0.4375 -1.59375,0.67188 -0.9375,0.21875 -2.14063,0.21875 z m 1.76562,-1.57813 h 2.85938 q 1.3125,0 2.0625,-0.23437 0.75,-0.25 1.20312,-0.70313 0.625,-0.625 0.96875,-1.6875 0.35938,-1.0625 0.35938,-2.57812 0,-2.09375 -0.6875,-3.21875 -0.6875,-1.125 -1.67188,-1.5 -0.70312,-0.28125 -2.28125,-0.28125 h -2.8125 z"
         id="path7265" />
      <path
         style="fill:#000000;fill-rule:nonzero"
         inkscape:connector-curvature="0"
         d="m 616.98584,476.20383 v 1.04687 h -5.89062 q -0.0156,-0.39062 0.125,-0.76562 0.23437,-0.59375 0.71875,-1.17188 0.5,-0.59375 1.4375,-1.35937 1.45312,-1.1875 1.95312,-1.875 0.51563,-0.70313 0.51563,-1.3125 0,-0.65625 -0.46875,-1.09375 -0.45313,-0.45313 -1.20313,-0.45313 -0.79687,0 -1.26562,0.46875 -0.46875,0.46875 -0.48438,1.3125 l -1.125,-0.10937 q 0.125,-1.26563 0.875,-1.92188 0.75,-0.65625 2.01563,-0.65625 1.28125,0 2.03125,0.71875 0.75,0.70313 0.75,1.75 0,0.53125 -0.21875,1.04688 -0.21875,0.51562 -0.73438,1.09375 -0.5,0.5625 -1.67187,1.5625 -0.98438,0.82812 -1.26563,1.125 -0.28125,0.29687 -0.46875,0.59375 z"
         id="path7267" />
      <path
         style="fill:#eeeeee;fill-rule:evenodd"
         inkscape:connector-curvature="0"
         d="m 152.84645,369.63528 v 0 c 0,-2.98907 2.42313,-5.4122 5.41219,-5.4122 h 70.90793 c 1.43539,0 2.81199,0.57022 3.82698,1.5852 1.01498,1.01499 1.58519,2.39161 1.58519,3.827 v 21.64807 c 0,2.98908 -2.42311,5.41217 -5.41217,5.41217 h -70.90793 v 0 c -2.98906,0 -5.41219,-2.42309 -5.41219,-5.41217 z"
         id="path7269" />
      <path
         style="fill-rule:evenodd;stroke:#595959;stroke-width:1;stroke-linecap:butt;stroke-linejoin:round"
         inkscape:connector-curvature="0"
         d="m 152.84645,369.63528 v 0 c 0,-2.98907 2.42313,-5.4122 5.41219,-5.4122 h 70.90793 c 1.43539,0 2.81199,0.57022 3.82698,1.5852 1.01498,1.01499 1.58519,2.39161 1.58519,3.827 v 21.64807 c 0,2.98908 -2.42311,5.41217 -5.41217,5.41217 h -70.90793 v 0 c -2.98906,0 -5.41219,-2.42309 -5.41219,-5.41217 z"
         id="path7271" />
      <path
         style="fill:#000000;fill-rule:nonzero"
         inkscape:connector-curvature="0"
         d="m 179.34634,387.3793 3.53125,-5.03125 -3.26563,-4.64063 h 2.04688 l 1.48437,2.26563 q 0.42188,0.64062 0.67188,1.07812 0.40625,-0.59375 0.73437,-1.0625 l 1.64063,-2.28125 h 1.95312 l -3.34375,4.54688 3.59375,5.125 h -2.01562 l -1.98438,-3 -0.51562,-0.8125 -2.54688,3.8125 z m 10.42187,0 v -9.67188 h 1.46875 v 1.35938 q 0.45313,-0.71875 1.20313,-1.14063 0.76562,-0.4375 1.71875,-0.4375 1.07812,0 1.76562,0.45313 0.6875,0.4375 0.96875,1.23437 1.15625,-1.6875 2.98438,-1.6875 1.45312,0 2.21875,0.79688 0.78125,0.79687 0.78125,2.45312 v 6.64063 h -1.64063 v -6.09375 q 0,-0.98438 -0.15625,-1.40625 -0.15625,-0.4375 -0.57812,-0.70313 -0.42188,-0.26562 -0.98438,-0.26562 -1.01562,0 -1.6875,0.6875 -0.67187,0.67187 -0.67187,2.15625 v 5.625 h -1.64063 v -6.28125 q 0,-1.09375 -0.40625,-1.64063 -0.40625,-0.54687 -1.3125,-0.54687 -0.6875,0 -1.28125,0.35937 -0.59375,0.35938 -0.85937,1.0625 -0.25,0.70313 -0.25,2.03125 v 5.01563 z m 15.49393,0 v -13.35938 h 1.64063 v 13.35938 z"
         id="path7273" />
      <path
         style="fill:#eeeeee;fill-rule:evenodd"
         inkscape:connector-curvature="0"
         d="m 566.5761,369.63528 v 0 c 0,-2.98907 2.4231,-5.4122 5.41217,-5.4122 h 70.90796 c 1.43536,0 2.81201,0.57022 3.82697,1.5852 1.01495,1.01499 1.5852,2.39161 1.5852,3.827 v 21.64807 c 0,2.98908 -2.42316,5.41217 -5.41217,5.41217 h -70.90796 v 0 c -2.98907,0 -5.41217,-2.42309 -5.41217,-5.41217 z"
         id="path7275" />
      <path
         style="fill-rule:evenodd;stroke:#595959;stroke-width:1;stroke-linecap:butt;stroke-linejoin:round"
         inkscape:connector-curvature="0"
         d="m 566.5761,369.63528 v 0 c 0,-2.98907 2.4231,-5.4122 5.41217,-5.4122 h 70.90796 c 1.43536,0 2.81201,0.57022 3.82697,1.5852 1.01495,1.01499 1.5852,2.39161 1.5852,3.827 v 21.64807 c 0,2.98908 -2.42316,5.41217 -5.41217,5.41217 h -70.90796 v 0 c -2.98907,0 -5.41217,-2.42309 -5.41217,-5.41217 z"
         id="path7277" />
      <path
         style="fill:#000000;fill-rule:nonzero"
         inkscape:connector-curvature="0"
         d="m 593.076,387.3793 3.53125,-5.03125 -3.26562,-4.64063 h 2.04687 l 1.48438,2.26563 q 0.42187,0.64062 0.67187,1.07812 0.40625,-0.59375 0.73438,-1.0625 l 1.64062,-2.28125 h 1.95313 l -3.34375,4.54688 3.59375,5.125 h -2.01563 l -1.98437,-3 -0.51563,-0.8125 -2.54687,3.8125 z m 10.42188,0 v -9.67188 h 1.46875 v 1.35938 q 0.45312,-0.71875 1.20312,-1.14063 0.76563,-0.4375 1.71875,-0.4375 1.07813,0 1.76563,0.45313 0.6875,0.4375 0.96875,1.23437 1.15625,-1.6875 2.98437,-1.6875 1.45313,0 2.21875,0.79688 0.78125,0.79687 0.78125,2.45312 v 6.64063 h -1.64062 v -6.09375 q 0,-0.98438 -0.15625,-1.40625 -0.15625,-0.4375 -0.57813,-0.70313 -0.42187,-0.26562 -0.98437,-0.26562 -1.01563,0 -1.6875,0.6875 -0.67188,0.67187 -0.67188,2.15625 v 5.625 h -1.64062 v -6.28125 q 0,-1.09375 -0.40625,-1.64063 -0.40625,-0.54687 -1.3125,-0.54687 -0.6875,0 -1.28125,0.35937 -0.59375,0.35938 -0.85938,1.0625 -0.25,0.70313 -0.25,2.03125 v 5.01563 z m 15.49395,0 v -13.35938 h 1.64063 v 13.35938 z"
         id="path7279" />
      <path
         style="fill:#b6d7a8;fill-rule:evenodd"
         inkscape:connector-curvature="0"
         d="m 154.8819,133.06299 12.26771,-11.70078 12.26772,11.70078 h -6.13387 v 11.70079 h -12.26771 v -11.70079 z"
         id="path7281" />
      <path
         style="fill-rule:evenodd;stroke:#595959;stroke-width:1;stroke-linecap:butt;stroke-linejoin:round"
         inkscape:connector-curvature="0"
         d="m 154.8819,133.06299 12.26771,-11.70078 12.26772,11.70078 h -6.13387 v 11.70079 h -12.26771 v -11.70079 z"
         id="path7283" />
      <path
         style="fill:#b6d7a8;fill-rule:evenodd"
         inkscape:connector-curvature="0"
         d="m 563.6877,133.06299 12.2677,-11.70078 12.2677,11.70078 h -6.13385 v 11.70079 h -12.2677 v -11.70079 z"
         id="path7285" />
      <path
         style="fill-rule:evenodd;stroke:#595959;stroke-width:1;stroke-linecap:butt;stroke-linejoin:round"
         inkscape:connector-curvature="0"
         d="m 563.6877,133.06299 12.2677,-11.70078 12.2677,11.70078 h -6.13385 v 11.70079 h -12.2677 v -11.70079 z"
         id="path7287" />
      <path
         style="fill:#b6d7a8;fill-rule:evenodd"
         inkscape:connector-curvature="0"
         d="m 84.3937,133.06299 h 6.133858 v -11.70078 h 12.267712 v 11.70078 h 6.13386 l -12.267715,11.70079 z"
         id="path7289" />
      <path
         style="fill-rule:evenodd;stroke:#595959;stroke-width:1;stroke-linecap:butt;stroke-linejoin:round"
         inkscape:connector-curvature="0"
         d="m 84.3937,133.06299 h 6.133858 v -11.70078 h 12.267712 v 11.70078 h 6.13386 l -12.267715,11.70079 z"
         id="path7291" />
      <path
         style="fill:#b6d7a8;fill-rule:evenodd"
         inkscape:connector-curvature="0"
         d="m 490.43176,133.06299 h 6.13385 v -11.70078 h 12.26773 v 11.70078 h 6.13382 l -12.2677,11.70079 z"
         id="path7293" />
      <path
         style="fill-rule:evenodd;stroke:#595959;stroke-width:1;stroke-linecap:butt;stroke-linejoin:round"
         inkscape:connector-curvature="0"
         d="m 490.43176,133.06299 h 6.13385 v -11.70078 h 12.26773 v 11.70078 h 6.13382 l -12.2677,11.70079 z"
         id="path7295" />
      <path
         style="fill:#b6d7a8;fill-rule:evenodd"
         inkscape:connector-curvature="0"
         d="m 226.19948,133.06299 h 6.13385 v -11.70078 h 12.26771 v 11.70078 h 6.13387 l -12.26771,11.70079 z"
         id="path7297" />
      <path
         style="fill-rule:evenodd;stroke:#595959;stroke-width:1;stroke-linecap:butt;stroke-linejoin:round"
         inkscape:connector-curvature="0"
         d="m 226.19948,133.06299 h 6.13385 v -11.70078 h 12.26771 v 11.70078 h 6.13387 l -12.26771,11.70079 z"
         id="path7299" />
      <path
         style="fill:#b6d7a8;fill-rule:evenodd"
         inkscape:connector-curvature="0"
         d="m 623.93176,133.06299 h 6.13385 v -11.70078 h 12.2677 v 11.70078 h 6.13385 l -12.2677,11.70079 z"
         id="path7301" />
      <path
         style="fill-rule:evenodd;stroke:#595959;stroke-width:1;stroke-linecap:butt;stroke-linejoin:round"
         inkscape:connector-curvature="0"
         d="m 623.93176,133.06299 h 6.13385 v -11.70078 h 12.2677 v 11.70078 h 6.13385 l -12.2677,11.70079 z"
         id="path7303" />
      <path
         style="fill:#eeeeee;fill-rule:evenodd"
         inkscape:connector-curvature="0"
         d="m 146.8819,229.06299 12.26771,-11.70079 12.26772,11.70079 h -6.13387 v 11.70079 h -12.26771 v -11.70079 z"
         id="path7305" />
      <path
         style="fill-rule:evenodd;stroke:#595959;stroke-width:1;stroke-linecap:butt;stroke-linejoin:round"
         inkscape:connector-curvature="0"
         d="m 146.8819,229.06299 12.26771,-11.70079 12.26772,11.70079 h -6.13387 v 11.70079 h -12.26771 v -11.70079 z"
         id="path7307" />
      <path
         style="fill:#eeeeee;fill-rule:evenodd"
         inkscape:connector-curvature="0"
         d="m 560.6142,229.06299 12.2677,-11.70079 12.2677,11.70079 h -6.13385 v 11.70079 h -12.2677 v -11.70079 z"
         id="path7309" />
      <path
         style="fill-rule:evenodd;stroke:#595959;stroke-width:1;stroke-linecap:butt;stroke-linejoin:round"
         inkscape:connector-curvature="0"
         d="m 560.6142,229.06299 12.2677,-11.70079 12.2677,11.70079 h -6.13385 v 11.70079 h -12.2677 v -11.70079 z"
         id="path7311" />
      <path
         style="fill:#eeeeee;fill-rule:evenodd"
         inkscape:connector-curvature="0"
         d="m 181.4462,346.17584 h 6.13385 v -11.70078 h 12.26771 v 11.70078 h 6.13387 l -12.26771,11.70081 z"
         id="path7313" />
      <path
         style="fill-rule:evenodd;stroke:#595959;stroke-width:1;stroke-linecap:butt;stroke-linejoin:round"
         inkscape:connector-curvature="0"
         d="m 181.4462,346.17584 h 6.13385 v -11.70078 h 12.26771 v 11.70078 h 6.13387 l -12.26771,11.70081 z"
         id="path7315" />
      <path
         style="fill:#eeeeee;fill-rule:evenodd"
         inkscape:connector-curvature="0"
         d="m 595.17584,346.17584 h 6.13385 v -11.70078 h 12.26776 v 11.70078 h 6.13385 l -12.26776,11.70081 z"
         id="path7317" />
      <path
         style="fill-rule:evenodd;stroke:#595959;stroke-width:1;stroke-linecap:butt;stroke-linejoin:round"
         inkscape:connector-curvature="0"
         d="m 595.17584,346.17584 h 6.13385 v -11.70078 h 12.26776 v 11.70078 h 6.13385 l -12.26776,11.70081 z"
         id="path7319" />
      <path
         style="fill:#eeeeee;fill-rule:evenodd"
         inkscape:connector-curvature="0"
         d="m 218.9685,229.44357 12.26772,-11.70079 12.26771,11.70079 h -6.13387 v 0 h 6.13387 l -12.26771,11.70079 -12.26772,-11.70079 h 6.13385 v 0 z"
         id="path7321" />
      <path
         style="fill-rule:evenodd;stroke:#595959;stroke-width:1;stroke-linecap:butt;stroke-linejoin:round"
         inkscape:connector-curvature="0"
         d="m 218.9685,229.44357 12.26772,-11.70079 12.26771,11.70079 h -6.13387 v 0 h 6.13387 l -12.26771,11.70079 -12.26772,-11.70079 h 6.13385 v 0 z"
         id="path7323" />
      <path
         style="fill:#eeeeee;fill-rule:evenodd"
         inkscape:connector-curvature="0"
         d="m 632.6142,229.44357 12.2677,-11.70079 12.2677,11.70079 h -6.13385 v 0 h 6.13385 l -12.2677,11.70079 -12.2677,-11.70079 h 6.13385 v 0 z"
         id="path7325" />
      <path
         style="fill-rule:evenodd;stroke:#595959;stroke-width:1;stroke-linecap:butt;stroke-linejoin:round"
         inkscape:connector-curvature="0"
         d="m 632.6142,229.44357 12.2677,-11.70079 12.2677,11.70079 h -6.13385 v 0 h 6.13385 l -12.2677,11.70079 -12.2677,-11.70079 h 6.13385 v 0 z"
         id="path7327" />
      <path
         style="fill:#eeeeee;fill-rule:evenodd"
         inkscape:connector-curvature="0"
         d="m 181.4462,418.17584 h 6.13385 v -11.70078 h 12.26771 v 11.70078 h 6.13387 l -12.26771,11.70081 z"
         id="path7329" />
      <path
         style="fill-rule:evenodd;stroke:#595959;stroke-width:1;stroke-linecap:butt;stroke-linejoin:round"
         inkscape:connector-curvature="0"
         d="m 181.4462,418.17584 h 6.13385 v -11.70078 h 12.26771 v 11.70078 h 6.13387 l -12.26771,11.70081 z"
         id="path7331" />
      <path
         style="fill:#eeeeee;fill-rule:evenodd"
         inkscape:connector-curvature="0"
         d="m 595.17584,418.17584 h 6.13385 v -11.70078 h 12.26776 v 11.70078 h 6.13385 l -12.26776,11.70081 z"
         id="path7333" />
      <path
         style="fill-rule:evenodd;stroke:#595959;stroke-width:1;stroke-linecap:butt;stroke-linejoin:round"
         inkscape:connector-curvature="0"
         d="m 595.17584,418.17584 h 6.13385 v -11.70078 h 12.26776 v 11.70078 h 6.13385 l -12.26776,11.70081 z"
         id="path7335" />
      <path
         style="fill:#eeeeee;fill-rule:evenodd"
         inkscape:connector-curvature="0"
         d="m 356.93124,147.35564 h 95.02362 v 57.00787 h -95.02362 z"
         id="path7337" />
      <path
         style="fill-rule:evenodd;stroke:#595959;stroke-width:1;stroke-linecap:butt;stroke-linejoin:round"
         inkscape:connector-curvature="0"
         d="m 356.93124,147.35564 h 95.02362 v 57.00787 h -95.02362 z"
         id="path7339" />
      <path
         style="fill:#000000;fill-rule:nonzero"
         inkscape:connector-curvature="0"
         d="m 380.15326,190.77957 5.17187,-6.95313 -4.5625,-6.40625 h 2.10938 l 2.42187,3.4375 q 0.75,1.0625 1.07813,1.625 0.4375,-0.71875 1.04687,-1.51562 l 2.6875,-3.54688 h 1.92188 l -4.6875,6.29688 5.0625,7.0625 h -2.1875 l -3.35938,-4.76563 q -0.28125,-0.40625 -0.59375,-0.89062 -0.4375,0.73437 -0.625,1 l -3.35937,4.65625 z m 13.55295,0 v -13.35938 h 1.64062 v 13.35938 z m 10.50421,-1.1875 q -0.92188,0.76562 -1.76563,1.09375 -0.82812,0.3125 -1.79687,0.3125 -1.59375,0 -2.45313,-0.78125 -0.85937,-0.78125 -0.85937,-1.98438 0,-0.71875 0.32812,-1.29687 0.32813,-0.59375 0.84375,-0.9375 0.53125,-0.35938 1.1875,-0.54688 0.46875,-0.125 1.45313,-0.25 1.98437,-0.23437 2.92187,-0.5625 0.0156,-0.34375 0.0156,-0.42187 0,-1 -0.46875,-1.42188 -0.625,-0.54687 -1.875,-0.54687 -1.15625,0 -1.70313,0.40625 -0.54687,0.40625 -0.8125,1.42187 l -1.60937,-0.21875 q 0.21875,-1.01562 0.71875,-1.64062 0.5,-0.64063 1.45312,-0.98438 0.95313,-0.34375 2.1875,-0.34375 1.25,0 2.01563,0.29688 0.78125,0.28125 1.14062,0.73437 0.375,0.4375 0.51563,1.10938 0.0781,0.42187 0.0781,1.51562 v 2.1875 q 0,2.28125 0.10938,2.89063 0.10937,0.59375 0.40625,1.15625 h -1.70313 q -0.26562,-0.51563 -0.32812,-1.1875 z m -0.14063,-3.67188 q -0.89062,0.375 -2.67187,0.625 -1.01563,0.14063 -1.4375,0.32813 -0.42188,0.1875 -0.65625,0.53125 -0.21875,0.34375 -0.21875,0.78125 0,0.65625 0.5,1.09375 0.5,0.4375 1.45312,0.4375 0.9375,0 1.67188,-0.40625 0.75,-0.42188 1.09375,-1.14063 0.26562,-0.5625 0.26562,-1.64062 z m 7.78196,3.39063 0.23437,1.45312 q -0.6875,0.14063 -1.23437,0.14063 -0.89063,0 -1.39063,-0.28125 -0.48437,-0.28125 -0.6875,-0.73438 -0.20312,-0.46875 -0.20312,-1.9375 v -5.57812 h -1.20313 v -1.26563 h 1.20313 v -2.39062 l 1.625,-0.98438 v 3.375 h 1.65625 v 1.26563 h -1.65625 v 5.67187 q 0,0.6875 0.0781,0.89063 0.0937,0.20312 0.28125,0.32812 0.20313,0.10938 0.57813,0.10938 0.26562,0 0.71875,-0.0625 z m 0.99582,-3.375 q 0,-2.6875 1.48437,-3.96875 1.25,-1.07813 3.04688,-1.07813 2,0 3.26562,1.3125 1.26563,1.29688 1.26563,3.60938 0,1.85937 -0.5625,2.9375 -0.5625,1.0625 -1.64063,1.65625 -1.0625,0.59375 -2.32812,0.59375 -2.03125,0 -3.28125,-1.29688 -1.25,-1.3125 -1.25,-3.76562 z m 1.6875,0 q 0,1.85937 0.79687,2.79687 0.8125,0.92188 2.04688,0.92188 1.21875,0 2.03125,-0.92188 0.8125,-0.9375 0.8125,-2.84375 0,-1.79687 -0.8125,-2.71875 -0.8125,-0.92187 -2.03125,-0.92187 -1.23438,0 -2.04688,0.92187 -0.79687,0.90625 -0.79687,2.76563 z m 9.28195,4.84375 v -9.67188 h 1.46875 v 1.46875 q 0.5625,-1.03125 1.03125,-1.35937 0.48437,-0.32813 1.0625,-0.32813 0.82812,0 1.6875,0.53125 l -0.5625,1.51563 q -0.60938,-0.35938 -1.20313,-0.35938 -0.54687,0 -0.96875,0.32813 -0.42187,0.32812 -0.60937,0.89062 -0.28125,0.875 -0.28125,1.92188 v 5.0625 z"
         id="path7343" />
      <path
         style="fill:#b6d7a8;fill-rule:evenodd"
         inkscape:connector-curvature="0"
         d="m 427.25986,133.06299 12.2677,-11.70078 12.26773,11.70078 h -6.13388 v 11.70079 h -12.2677 v -11.70079 z"
         id="path7345" />
      <path
         style="fill-rule:evenodd;stroke:#595959;stroke-width:1;stroke-linecap:butt;stroke-linejoin:round"
         inkscape:connector-curvature="0"
         d="m 427.25986,133.06299 12.2677,-11.70078 12.26773,11.70078 h -6.13388 v 11.70079 h -12.2677 v -11.70079 z"
         id="path7347" />
      <path
         style="fill:#b6d7a8;fill-rule:evenodd"
         inkscape:connector-curvature="0"
         d="m 356.93176,133.06299 h 6.13385 v -11.70078 h 12.26773 v 11.70078 h 6.13385 l -12.26773,11.70079 z"
         id="path7349" />
      <path
         style="fill-rule:evenodd;stroke:#595959;stroke-width:1;stroke-linecap:butt;stroke-linejoin:round"
         inkscape:connector-curvature="0"
         d="m 356.93176,133.06299 h 6.13385 v -11.70078 h 12.26773 v 11.70078 h 6.13385 l -12.26773,11.70079 z"
         id="path7351" />
      <path
         style="fill:#b6d7a8;fill-rule:evenodd"
         inkscape:connector-curvature="0"
         d="m 836.2257,133.06299 12.2677,-11.70078 12.26776,11.70078 h -6.13385 v 11.70079 h -12.26776 v -11.70079 z"
         id="path7353" />
      <path
         style="fill-rule:evenodd;stroke:#595959;stroke-width:1;stroke-linecap:butt;stroke-linejoin:round"
         inkscape:connector-curvature="0"
         d="m 836.2257,133.06299 12.2677,-11.70078 12.26776,11.70078 h -6.13385 v 11.70079 h -12.26776 v -11.70079 z"
         id="path7355" />
      <path
         style="fill:#b6d7a8;fill-rule:evenodd"
         inkscape:connector-curvature="0"
         d="m 765.73755,133.06299 h 6.13385 v -11.70078 h 12.2677 v 11.70078 h 6.13385 l -12.2677,11.70079 z"
         id="path7357" />
      <path
         style="fill-rule:evenodd;stroke:#595959;stroke-width:1;stroke-linecap:butt;stroke-linejoin:round"
         inkscape:connector-curvature="0"
         d="m 765.73755,133.06299 h 6.13385 v -11.70078 h 12.2677 v 11.70078 h 6.13385 l -12.2677,11.70079 z"
         id="path7359" />
      <path
         style="fill:#eeeeee;fill-rule:evenodd"
         inkscape:connector-curvature="0"
         d="m 765.73755,147.35564 h 95.02362 v 57.00787 h -95.02362 z"
         id="path7361" />
      <path
         style="fill-rule:evenodd;stroke:#595959;stroke-width:1;stroke-linecap:butt;stroke-linejoin:round"
         inkscape:connector-curvature="0"
         d="m 765.73755,147.35564 h 95.02362 v 57.00787 h -95.02362 z"
         id="path7363" />
      <path
         style="fill:#000000;fill-rule:nonzero"
         inkscape:connector-curvature="0"
         d="m 788.95953,190.77957 5.17187,-6.95313 -4.5625,-6.40625 h 2.10938 l 2.42187,3.4375 q 0.75,1.0625 1.07813,1.625 0.4375,-0.71875 1.04687,-1.51562 l 2.6875,-3.54688 h 1.92188 l -4.6875,6.29688 5.0625,7.0625 h -2.1875 l -3.35938,-4.76563 q -0.28125,-0.40625 -0.59375,-0.89062 -0.4375,0.73437 -0.625,1 l -3.35937,4.65625 z m 13.55298,0 v -13.35938 h 1.64062 v 13.35938 z m 10.50421,-1.1875 q -0.92188,0.76562 -1.76563,1.09375 -0.82812,0.3125 -1.79687,0.3125 -1.59375,0 -2.45313,-0.78125 -0.85937,-0.78125 -0.85937,-1.98438 0,-0.71875 0.32812,-1.29687 0.32813,-0.59375 0.84375,-0.9375 0.53125,-0.35938 1.1875,-0.54688 0.46875,-0.125 1.45313,-0.25 1.98437,-0.23437 2.92187,-0.5625 0.0156,-0.34375 0.0156,-0.42187 0,-1 -0.46875,-1.42188 -0.625,-0.54687 -1.875,-0.54687 -1.15625,0 -1.70313,0.40625 -0.54687,0.40625 -0.8125,1.42187 l -1.60937,-0.21875 q 0.21875,-1.01562 0.71875,-1.64062 0.5,-0.64063 1.45312,-0.98438 0.95313,-0.34375 2.1875,-0.34375 1.25,0 2.01563,0.29688 0.78125,0.28125 1.14062,0.73437 0.375,0.4375 0.51563,1.10938 0.0781,0.42187 0.0781,1.51562 v 2.1875 q 0,2.28125 0.10938,2.89063 0.10937,0.59375 0.40625,1.15625 h -1.70313 q -0.26562,-0.51563 -0.32812,-1.1875 z m -0.14063,-3.67188 q -0.89062,0.375 -2.67187,0.625 -1.01563,0.14063 -1.4375,0.32813 -0.42188,0.1875 -0.65625,0.53125 -0.21875,0.34375 -0.21875,0.78125 0,0.65625 0.5,1.09375 0.5,0.4375 1.45312,0.4375 0.9375,0 1.67188,-0.40625 0.75,-0.42188 1.09375,-1.14063 0.26562,-0.5625 0.26562,-1.64062 z m 7.78193,3.39063 0.23437,1.45312 q -0.6875,0.14063 -1.23437,0.14063 -0.89063,0 -1.39063,-0.28125 -0.48437,-0.28125 -0.6875,-0.73438 -0.20312,-0.46875 -0.20312,-1.9375 v -5.57812 h -1.20313 v -1.26563 h 1.20313 v -2.39062 l 1.625,-0.98438 v 3.375 h 1.65625 v 1.26563 h -1.65625 v 5.67187 q 0,0.6875 0.0781,0.89063 0.0937,0.20312 0.28125,0.32812 0.20313,0.10938 0.57813,0.10938 0.26562,0 0.71875,-0.0625 z m 0.99585,-3.375 q 0,-2.6875 1.48437,-3.96875 1.25,-1.07813 3.04688,-1.07813 2,0 3.26562,1.3125 1.26563,1.29688 1.26563,3.60938 0,1.85937 -0.5625,2.9375 -0.5625,1.0625 -1.64063,1.65625 -1.0625,0.59375 -2.32812,0.59375 -2.03125,0 -3.28125,-1.29688 -1.25,-1.3125 -1.25,-3.76562 z m 1.6875,0 q 0,1.85937 0.79687,2.79687 0.8125,0.92188 2.04688,0.92188 1.21875,0 2.03125,-0.92188 0.8125,-0.9375 0.8125,-2.84375 0,-1.79687 -0.8125,-2.71875 -0.8125,-0.92187 -2.03125,-0.92187 -1.23438,0 -2.04688,0.92187 -0.79687,0.90625 -0.79687,2.76563 z m 9.28192,4.84375 v -9.67188 h 1.46875 v 1.46875 q 0.5625,-1.03125 1.03125,-1.35937 0.48437,-0.32813 1.0625,-0.32813 0.82812,0 1.6875,0.53125 l -0.5625,1.51563 q -0.60938,-0.35938 -1.20313,-0.35938 -0.54687,0 -0.96875,0.32813 -0.42187,0.32812 -0.60937,0.89062 -0.28125,0.875 -0.28125,1.92188 v 5.0625 z"
         id="path7367" />
      <path
         style="fill:#000000;fill-rule:nonzero;stroke:none;stroke-linecap:square;stroke-miterlimit:10"
         inkscape:connector-curvature="0"
         d="m 425.22712,171.03929 h -1.09375 v -6.96875 q -0.40625,0.375 -1.04687,0.75 -0.64063,0.375 -1.14063,0.57812 v -1.0625 q 0.90625,-0.4375 1.59375,-1.04687 0.6875,-0.60938 0.96875,-1.1875 h 0.71875 z m 3.40143,0 v -1.25 h 1.25 v 1.25 z m 2.8461,-4.39063 q 0,-1.57812 0.32812,-2.53125 0.32813,-0.96875 0.96875,-1.48437 0.64063,-0.53125 1.60938,-0.53125 0.71875,0 1.25,0.29687 0.54687,0.28125 0.89062,0.82813 0.35938,0.53125 0.5625,1.3125 0.20313,0.78125 0.20313,2.10937 0,1.5625 -0.32813,2.53125 -0.32812,0.95313 -0.96875,1.48438 -0.64062,0.53125 -1.60937,0.53125 -1.29688,0 -2.03125,-0.92188 -0.875,-1.10937 -0.875,-3.625 z m 1.125,0 q 0,2.1875 0.51562,2.92188 0.51563,0.71875 1.26563,0.71875 0.75,0 1.26562,-0.71875 0.51563,-0.73438 0.51563,-2.92188 0,-2.20312 -0.51563,-2.92187 -0.51562,-0.71875 -1.28125,-0.71875 -0.75,0 -1.20312,0.64062 -0.5625,0.8125 -0.5625,3 z m 6.4014,4.39063 v -1.25 h 1.25 v 1.25 z m 6.97113,0 h -1.09375 v -6.96875 q -0.40625,0.375 -1.04688,0.75 -0.64062,0.375 -1.14062,0.57812 v -1.0625 q 0.90625,-0.4375 1.59375,-1.04687 0.6875,-0.60938 0.96875,-1.1875 h 0.71875 z"
         id="path7247-2" />
      <path
         style="fill:#000000;fill-rule:nonzero;stroke:none;stroke-linecap:square;stroke-miterlimit:10"
         inkscape:connector-curvature="0"
         d="m 361.40266,165.67706 q 0,-1.57813 0.32812,-2.53125 0.32813,-0.96875 0.96875,-1.48438 0.64063,-0.53125 1.60938,-0.53125 0.71875,0 1.25,0.29688 0.54687,0.28125 0.89062,0.82812 0.35938,0.53125 0.5625,1.3125 0.20313,0.78125 0.20313,2.10938 0,1.5625 -0.32813,2.53125 -0.32812,0.95312 -0.96875,1.48437 -0.64062,0.53125 -1.60937,0.53125 -1.29688,0 -2.03125,-0.92187 -0.875,-1.10938 -0.875,-3.625 z m 1.125,0 q 0,2.1875 0.51562,2.92187 0.51563,0.71875 1.26563,0.71875 0.75,0 1.26562,-0.71875 0.51563,-0.73437 0.51563,-2.92187 0,-2.20313 -0.51563,-2.92188 -0.51562,-0.71875 -1.28125,-0.71875 -0.75,0 -1.20312,0.64063 -0.5625,0.8125 -0.5625,3 z m 6.40143,4.39062 v -1.25 h 1.25 v 1.25 z m 4.53363,-4.82812 q -0.6875,-0.25 -1.01563,-0.70313 -0.32812,-0.46875 -0.32812,-1.10937 0,-0.96875 0.70312,-1.625 0.70313,-0.67188 1.85938,-0.67188 1.15625,0 1.85937,0.6875 0.71875,0.67188 0.71875,1.64063 0,0.60937 -0.32812,1.07812 -0.3125,0.45313 -0.98438,0.70313 0.82813,0.26562 1.25,0.85937 0.4375,0.59375 0.4375,1.42188 0,1.14062 -0.8125,1.92187 -0.8125,0.78125 -2.125,0.78125 -1.3125,0 -2.125,-0.78125 -0.8125,-0.78125 -0.8125,-1.95312 0,-0.85938 0.4375,-1.4375 0.45313,-0.59375 1.26563,-0.8125 z m -0.21875,-1.85938 q 0,0.64063 0.40625,1.04688 0.40625,0.39062 1.04687,0.39062 0.64063,0 1.03125,-0.39062 0.40625,-0.40625 0.40625,-0.98438 0,-0.59375 -0.42187,-1 -0.40625,-0.42187 -1.01563,-0.42187 -0.625,0 -1.04687,0.40625 -0.40625,0.40625 -0.40625,0.95312 z m -0.35938,4.125 q 0,0.46875 0.21875,0.90625 0.23438,0.42188 0.67188,0.67188 0.4375,0.23437 0.9375,0.23437 0.78125,0 1.28125,-0.5 0.51562,-0.5 0.51562,-1.28125 0,-0.79687 -0.53125,-1.3125 -0.51562,-0.51562 -1.3125,-0.51562 -0.76562,0 -1.28125,0.51562 -0.5,0.51563 -0.5,1.28125 z m 6.41706,2.5625 v -1.25 h 1.25 v 1.25 z m 6.97107,0 h -1.09375 v -6.96875 q -0.40625,0.375 -1.04688,0.75 -0.64062,0.375 -1.14062,0.57813 v -1.0625 q 0.90625,-0.4375 1.59375,-1.04688 0.6875,-0.60937 0.96875,-1.1875 h 0.71875 z"
         id="path7257-6" />
      <path
         style="fill:#000000;fill-rule:nonzero;stroke:none;stroke-linecap:square;stroke-miterlimit:10"
         inkscape:connector-curvature="0"
         d="m 773.60556,168.49672 h -1.09375 v -6.96875 q -0.40625,0.375 -1.04687,0.75 -0.64063,0.375 -1.14063,0.57812 v -1.0625 q 0.90625,-0.4375 1.59375,-1.04687 0.6875,-0.60938 0.96875,-1.1875 h 0.71875 z m 3.40143,0 v -1.25 h 1.25 v 1.25 z m 2.8461,-4.39063 q 0,-1.57812 0.32812,-2.53125 0.32813,-0.96875 0.96875,-1.48437 0.64063,-0.53125 1.60938,-0.53125 0.71875,0 1.25,0.29687 0.54687,0.28125 0.89062,0.82813 0.35938,0.53125 0.5625,1.3125 0.20313,0.78125 0.20313,2.10937 0,1.5625 -0.32813,2.53125 -0.32812,0.95313 -0.96875,1.48438 -0.64062,0.53125 -1.60937,0.53125 -1.29688,0 -2.03125,-0.92188 -0.875,-1.10937 -0.875,-3.625 z m 1.125,0 q 0,2.1875 0.51562,2.92188 0.51563,0.71875 1.26563,0.71875 0.75,0 1.26562,-0.71875 0.51563,-0.73438 0.51563,-2.92188 0,-2.20312 -0.51563,-2.92187 -0.51562,-0.71875 -1.28125,-0.71875 -0.75,0 -1.20312,0.64062 -0.5625,0.8125 -0.5625,3 z m 6.4014,4.39063 v -1.25 h 1.25 v 1.25 z m 6.97113,0 h -1.09375 v -6.96875 q -0.40625,0.375 -1.04688,0.75 -0.64062,0.375 -1.14062,0.57812 v -1.0625 q 0.90625,-0.4375 1.59375,-1.04687 0.6875,-0.60938 0.96875,-1.1875 h 0.71875 z"
         id="path7247-2-5" />
      <path
         style="fill:#000000;fill-rule:nonzero;stroke:none;stroke-linecap:square;stroke-miterlimit:10"
         inkscape:connector-curvature="0"
         d="m 829.7811,163.13449 q 0,-1.57813 0.32812,-2.53125 0.32813,-0.96875 0.96875,-1.48438 0.64063,-0.53125 1.60938,-0.53125 0.71875,0 1.25,0.29688 0.54687,0.28125 0.89062,0.82812 0.35938,0.53125 0.5625,1.3125 0.20313,0.78125 0.20313,2.10938 0,1.5625 -0.32813,2.53125 -0.32812,0.95312 -0.96875,1.48437 -0.64062,0.53125 -1.60937,0.53125 -1.29688,0 -2.03125,-0.92187 -0.875,-1.10938 -0.875,-3.625 z m 1.125,0 q 0,2.1875 0.51562,2.92187 0.51563,0.71875 1.26563,0.71875 0.75,0 1.26562,-0.71875 0.51563,-0.73437 0.51563,-2.92187 0,-2.20313 -0.51563,-2.92188 -0.51562,-0.71875 -1.28125,-0.71875 -0.75,0 -1.20312,0.64063 -0.5625,0.8125 -0.5625,3 z m 6.40143,4.39062 v -1.25 h 1.25 v 1.25 z m 4.53363,-4.82812 q -0.6875,-0.25 -1.01563,-0.70313 -0.32812,-0.46875 -0.32812,-1.10937 0,-0.96875 0.70312,-1.625 0.70313,-0.67188 1.85938,-0.67188 1.15625,0 1.85937,0.6875 0.71875,0.67188 0.71875,1.64063 0,0.60937 -0.32812,1.07812 -0.3125,0.45313 -0.98438,0.70313 0.82813,0.26562 1.25,0.85937 0.4375,0.59375 0.4375,1.42188 0,1.14062 -0.8125,1.92187 -0.8125,0.78125 -2.125,0.78125 -1.3125,0 -2.125,-0.78125 -0.8125,-0.78125 -0.8125,-1.95312 0,-0.85938 0.4375,-1.4375 0.45313,-0.59375 1.26563,-0.8125 z m -0.21875,-1.85938 q 0,0.64063 0.40625,1.04688 0.40625,0.39062 1.04687,0.39062 0.64063,0 1.03125,-0.39062 0.40625,-0.40625 0.40625,-0.98438 0,-0.59375 -0.42187,-1 -0.40625,-0.42187 -1.01563,-0.42187 -0.625,0 -1.04687,0.40625 -0.40625,0.40625 -0.40625,0.95312 z m -0.35938,4.125 q 0,0.46875 0.21875,0.90625 0.23438,0.42188 0.67188,0.67188 0.4375,0.23437 0.9375,0.23437 0.78125,0 1.28125,-0.5 0.51562,-0.5 0.51562,-1.28125 0,-0.79687 -0.53125,-1.3125 -0.51562,-0.51562 -1.3125,-0.51562 -0.76562,0 -1.28125,0.51562 -0.5,0.51563 -0.5,1.28125 z m 6.41706,2.5625 v -1.25 h 1.25 v 1.25 z m 6.97107,0 h -1.09375 v -6.96875 q -0.40625,0.375 -1.04688,0.75 -0.64062,0.375 -1.14062,0.57813 v -1.0625 q 0.90625,-0.4375 1.59375,-1.04688 0.6875,-0.60937 0.96875,-1.1875 h 0.71875 z"
         id="path7257-6-7" />
    </g>
  </g>
</svg>
